<svg xmlns="http://www.w3.org/2000/svg" xmlns:xlink="http://www.w3.org/1999/xlink" contentStyleType="text/css" height="326px" preserveAspectRatio="none" style="width:240px;height:326px;background:#1B1B1B;" version="1.1" viewBox="0 0 240 326" width="240px" zoomAndPan="magnify"><defs/><g><rect fill="#1B1B1B" height="326" style="stroke:none;stroke-width:1.0;" width="240" x="0" y="0"/><!--class CalendarFragment--><g id="elem_CalendarFragment"><rect codeLine="1" fill="#313139" height="64.2969" id="CalendarFragment" rx="2.5" ry="2.5" style="stroke:#E7E7E7;stroke-width:0.5;" width="162.8398" x="38.73" y="7"/><ellipse cx="53.73" cy="23" fill="#2E5233" rx="11" ry="11" style="stroke:#E7E7E7;stroke-width:1.0;"/><path d="M56.6988,28.6406 Q56.1206,28.9375 55.48,29.0781 Q54.8394,29.2344 54.1363,29.2344 Q51.6363,29.2344 50.3081,27.5938 Q48.9956,25.9375 48.9956,22.8125 Q48.9956,19.6875 50.3081,18.0313 Q51.6363,16.375 54.1363,16.375 Q54.8394,16.375 55.48,16.5313 Q56.1363,16.6875 56.6988,16.9844 L56.6988,19.7031 Q56.0738,19.125 55.48,18.8594 Q54.8863,18.5781 54.2613,18.5781 Q52.9175,18.5781 52.23,19.6563 Q51.5425,20.7188 51.5425,22.8125 Q51.5425,24.9063 52.23,25.9844 Q52.9175,27.0469 54.2613,27.0469 Q54.8863,27.0469 55.48,26.7813 Q56.0738,26.5 56.6988,25.9219 L56.6988,28.6406 Z " fill="#FFFFFF"/><text fill="#FFFFFF" font-family="sans-serif" font-size="14" lengthAdjust="spacing" textLength="130.8398" x="67.73" y="27.8467">CalendarFragment</text><line style="stroke:#E7E7E7;stroke-width:0.5;" x1="39.73" x2="200.5698" y1="39" y2="39"/><line style="stroke:#E7E7E7;stroke-width:0.5;" x1="39.73" x2="200.5698" y1="47" y2="47"/><rect fill="#F24D5C" height="6" style="stroke:#C82930;stroke-width:1.0;" width="6" x="46.73" y="57.6484"/><text fill="#FFFFFF" font-family="sans-serif" font-size="14" lengthAdjust="spacing" textLength="121.7891" x="58.73" y="63.9951">btnSaveOnClick()</text></g><!--class CalendarViewModel--><g id="elem_CalendarViewModel"><rect codeLine="6" fill="#313139" height="80.5938" id="CalendarViewModel" rx="2.5" ry="2.5" style="stroke:#E7E7E7;stroke-width:0.5;" width="226.2998" x="7" y="131.3"/><ellipse cx="47.1024" cy="147.3" fill="#2E5233" rx="11" ry="11" style="stroke:#E7E7E7;stroke-width:1.0;"/><path d="M50.0712,152.9406 Q49.4931,153.2375 48.8524,153.3781 Q48.2118,153.5344 47.5087,153.5344 Q45.0087,153.5344 43.6806,151.8937 Q42.3681,150.2375 42.3681,147.1125 Q42.3681,143.9875 43.6806,142.3312 Q45.0087,140.675 47.5087,140.675 Q48.2118,140.675 48.8524,140.8312 Q49.5087,140.9875 50.0712,141.2844 L50.0712,144.0031 Q49.4462,143.425 48.8524,143.1594 Q48.2587,142.8781 47.6337,142.8781 Q46.2899,142.8781 45.6024,143.9562 Q44.9149,145.0187 44.9149,147.1125 Q44.9149,149.2062 45.6024,150.2844 Q46.2899,151.3469 47.6337,151.3469 Q48.2587,151.3469 48.8524,151.0812 Q49.4462,150.8 50.0712,150.2219 L50.0712,152.9406 Z " fill="#FFFFFF"/><text fill="#FFFFFF" font-family="sans-serif" font-size="14" lengthAdjust="spacing" textLength="138.5166" x="66.6808" y="152.1467">CalendarViewModel</text><line style="stroke:#E7E7E7;stroke-width:0.5;" x1="8" x2="232.2998" y1="163.3" y2="163.3"/><line style="stroke:#E7E7E7;stroke-width:0.5;" x1="8" x2="232.2998" y1="171.3" y2="171.3"/><rect fill="#F24D5C" height="6" style="stroke:#C82930;stroke-width:1.0;" width="6" x="15" y="181.9484"/><text fill="#FFFFFF" font-family="sans-serif" font-size="14" lengthAdjust="spacing" textLength="200.2998" x="27" y="188.2951">loadCalendarTrainingsUser()</text><ellipse cx="18" cy="201.2453" fill="#84BE84" rx="3" ry="3" style="stroke:#038048;stroke-width:1.0;"/><text fill="#FFFFFF" font-family="sans-serif" font-size="14" lengthAdjust="spacing" textLength="163.9463" x="27" y="204.592">saveCalendarTraining()</text></g><!--class DB--><g id="elem_DB"><rect codeLine="11" fill="#313139" height="48" id="DB" rx="2.5" ry="2.5" style="stroke:#E7E7E7;stroke-width:0.5;" width="52.3848" x="93.96" y="271.89"/><ellipse cx="108.96" cy="287.89" fill="#2E5233" rx="11" ry="11" style="stroke:#E7E7E7;stroke-width:1.0;"/><path d="M111.9288,293.5306 Q111.3506,293.8275 110.71,293.9681 Q110.0694,294.1244 109.3663,294.1244 Q106.8663,294.1244 105.5381,292.4838 Q104.2256,290.8275 104.2256,287.7025 Q104.2256,284.5775 105.5381,282.9213 Q106.8663,281.265 109.3663,281.265 Q110.0694,281.265 110.71,281.4213 Q111.3663,281.5775 111.9288,281.8744 L111.9288,284.5931 Q111.3038,284.015 110.71,283.7494 Q110.1163,283.4681 109.4913,283.4681 Q108.1475,283.4681 107.46,284.5463 Q106.7725,285.6088 106.7725,287.7025 Q106.7725,289.7963 107.46,290.8744 Q108.1475,291.9369 109.4913,291.9369 Q110.1163,291.9369 110.71,291.6713 Q111.3038,291.39 111.9288,290.8119 L111.9288,293.5306 Z " fill="#FFFFFF"/><text fill="#FFFFFF" font-family="sans-serif" font-size="14" lengthAdjust="spacing" textLength="20.3848" x="122.96" y="292.7367">DB</text><line style="stroke:#E7E7E7;stroke-width:0.5;" x1="94.96" x2="145.3448" y1="303.89" y2="303.89"/><line style="stroke:#E7E7E7;stroke-width:0.5;" x1="94.96" x2="145.3448" y1="311.89" y2="311.89"/></g><!--link CalendarFragment to CalendarViewModel--><g id="link_CalendarFragment_CalendarViewModel"><path codeLine="15" d="M120.15,71.72 C120.15,89.52 120.15,105.92 120.15,124.89 " fill="none" id="CalendarFragment-to-CalendarViewModel" style="stroke:#E7E7E7;stroke-width:1.0;"/><polygon fill="#E7E7E7" points="120.15,130.89,124.15,121.89,120.15,125.89,116.15,121.89,120.15,130.89" style="stroke:#E7E7E7;stroke-width:1.0;"/></g><!--link CalendarViewModel to DB--><g id="link_CalendarViewModel_DB"><path codeLine="16" d="M120.15,212.3 C120.15,231.83 120.15,248.7 120.15,265.41 " fill="none" id="CalendarViewModel-to-DB" style="stroke:#E7E7E7;stroke-width:1.0;"/><polygon fill="#E7E7E7" points="120.15,271.41,124.15,262.41,120.15,266.41,116.15,262.41,120.15,271.41" style="stroke:#E7E7E7;stroke-width:1.0;"/></g><!--SRC=[Iyv9B2vMS4xCISrBIInoAqfCpqtDAwdcuj9LI2h92quiI_NFSyx9JCxMqEIgvU9AHb4UbfbQxfkVaffJ3LIUav-O0fC8AKhCpClCIoyEBKuj0khKLYW6ceGkYsoaYnFGJY0FtIKAkhfscFPnOOY0rRau0G00]--></g></svg>