<svg xmlns="http://www.w3.org/2000/svg" xmlns:xlink="http://www.w3.org/1999/xlink" contentStyleType="text/css" height="218px" preserveAspectRatio="none" style="width:313px;height:218px;background:#1B1B1B;" version="1.1" viewBox="0 0 313 218" width="313px" zoomAndPan="magnify"><defs/><g><rect fill="#1B1B1B" height="218" style="stroke:none;stroke-width:1.0;" width="313" x="0" y="0"/><!--class EditUserActivity--><g id="elem_EditUserActivity"><rect codeLine="1" fill="#313139" height="80.5938" id="EditUserActivity" rx="2.5" ry="2.5" style="stroke:#E7E7E7;stroke-width:0.5;" width="143.624" x="91.58" y="7"/><ellipse cx="106.58" cy="23" fill="#2E5233" rx="11" ry="11" style="stroke:#E7E7E7;stroke-width:1.0;"/><path d="M109.5488,28.6406 Q108.9706,28.9375 108.33,29.0781 Q107.6894,29.2344 106.9863,29.2344 Q104.4863,29.2344 103.1581,27.5938 Q101.8456,25.9375 101.8456,22.8125 Q101.8456,19.6875 103.1581,18.0313 Q104.4863,16.375 106.9863,16.375 Q107.6894,16.375 108.33,16.5313 Q108.9863,16.6875 109.5488,16.9844 L109.5488,19.7031 Q108.9238,19.125 108.33,18.8594 Q107.7363,18.5781 107.1113,18.5781 Q105.7675,18.5781 105.08,19.6563 Q104.3925,20.7188 104.3925,22.8125 Q104.3925,24.9063 105.08,25.9844 Q105.7675,27.0469 107.1113,27.0469 Q107.7363,27.0469 108.33,26.7813 Q108.9238,26.5 109.5488,25.9219 L109.5488,28.6406 Z " fill="#FFFFFF"/><text fill="#FFFFFF" font-family="sans-serif" font-size="14" lengthAdjust="spacing" textLength="111.624" x="120.58" y="27.8467">EditUserActivity</text><line style="stroke:#E7E7E7;stroke-width:0.5;" x1="92.58" x2="234.204" y1="39" y2="39"/><line style="stroke:#E7E7E7;stroke-width:0.5;" x1="92.58" x2="234.204" y1="47" y2="47"/><rect fill="#F24D5C" height="6" style="stroke:#C82930;stroke-width:1.0;" width="6" x="99.58" y="57.6484"/><text fill="#FFFFFF" font-family="sans-serif" font-size="14" lengthAdjust="spacing" textLength="106.1826" x="111.58" y="63.9951">loadUserData()</text><rect fill="#F24D5C" height="6" style="stroke:#C82930;stroke-width:1.0;" width="6" x="99.58" y="73.9453"/><text fill="#FFFFFF" font-family="sans-serif" font-size="14" lengthAdjust="spacing" textLength="103.1406" x="111.58" y="80.292">editUserData()</text></g><!--class SessionManager--><g id="elem_SessionManager"><rect codeLine="6" fill="#313139" height="64.2969" id="SessionManager" rx="2.5" ry="2.5" style="stroke:#E7E7E7;stroke-width:0.5;" width="146.7822" x="7" y="147.59"/><ellipse cx="22" cy="163.59" fill="#2E5233" rx="11" ry="11" style="stroke:#E7E7E7;stroke-width:1.0;"/><path d="M24.9688,169.2306 Q24.3906,169.5275 23.75,169.6681 Q23.1094,169.8244 22.4063,169.8244 Q19.9063,169.8244 18.5781,168.1837 Q17.2656,166.5275 17.2656,163.4025 Q17.2656,160.2775 18.5781,158.6212 Q19.9063,156.965 22.4063,156.965 Q23.1094,156.965 23.75,157.1212 Q24.4063,157.2775 24.9688,157.5744 L24.9688,160.2931 Q24.3438,159.715 23.75,159.4494 Q23.1563,159.1681 22.5313,159.1681 Q21.1875,159.1681 20.5,160.2462 Q19.8125,161.3087 19.8125,163.4025 Q19.8125,165.4962 20.5,166.5744 Q21.1875,167.6369 22.5313,167.6369 Q23.1563,167.6369 23.75,167.3712 Q24.3438,167.09 24.9688,166.5119 L24.9688,169.2306 Z " fill="#FFFFFF"/><text fill="#FFFFFF" font-family="sans-serif" font-size="14" lengthAdjust="spacing" textLength="114.7822" x="36" y="168.4367">SessionManager</text><line style="stroke:#E7E7E7;stroke-width:0.5;" x1="8" x2="152.7822" y1="179.59" y2="179.59"/><line style="stroke:#E7E7E7;stroke-width:0.5;" x1="8" x2="152.7822" y1="187.59" y2="187.59"/><ellipse cx="18" cy="201.2384" fill="#84BE84" rx="3" ry="3" style="stroke:#038048;stroke-width:1.0;"/><text fill="#FFFFFF" font-family="sans-serif" font-size="14" lengthAdjust="spacing" textLength="109.0879" x="27" y="204.5851">GetUserName()</text></g><!--class DB--><g id="elem_DB"><rect codeLine="10" fill="#313139" height="64.2969" id="DB" rx="2.5" ry="2.5" style="stroke:#E7E7E7;stroke-width:0.5;" width="118.1621" x="188.31" y="147.59"/><ellipse cx="232.9487" cy="163.59" fill="#2E5233" rx="11" ry="11" style="stroke:#E7E7E7;stroke-width:1.0;"/><path d="M235.9174,169.2306 Q235.3393,169.5275 234.6987,169.6681 Q234.058,169.8244 233.3549,169.8244 Q230.8549,169.8244 229.5268,168.1837 Q228.2143,166.5275 228.2143,163.4025 Q228.2143,160.2775 229.5268,158.6212 Q230.8549,156.965 233.3549,156.965 Q234.058,156.965 234.6987,157.1212 Q235.3549,157.2775 235.9174,157.5744 L235.9174,160.2931 Q235.2924,159.715 234.6987,159.4494 Q234.1049,159.1681 233.4799,159.1681 Q232.1362,159.1681 231.4487,160.2462 Q230.7612,161.3087 230.7612,163.4025 Q230.7612,165.4962 231.4487,166.5744 Q232.1362,167.6369 233.4799,167.6369 Q234.1049,167.6369 234.6987,167.3712 Q235.2924,167.09 235.9174,166.5119 L235.9174,169.2306 Z " fill="#FFFFFF"/><text fill="#FFFFFF" font-family="sans-serif" font-size="14" lengthAdjust="spacing" textLength="20.3848" x="253.4487" y="168.4367">DB</text><line style="stroke:#E7E7E7;stroke-width:0.5;" x1="189.31" x2="305.4721" y1="179.59" y2="179.59"/><line style="stroke:#E7E7E7;stroke-width:0.5;" x1="189.31" x2="305.4721" y1="187.59" y2="187.59"/><ellipse cx="199.31" cy="201.2384" fill="#84BE84" rx="3" ry="3" style="stroke:#038048;stroke-width:1.0;"/><text fill="#FFFFFF" font-family="sans-serif" font-size="14" lengthAdjust="spacing" textLength="92.1621" x="208.31" y="204.5851">updateUser()</text></g><!--link EditUserActivity to SessionManager--><g id="link_EditUserActivity_SessionManager"><path codeLine="14" d="M138.26,87.79 C126.14,106.83 115.0329,124.3091 103.6529,142.1791 " fill="none" id="EditUserActivity-to-SessionManager" style="stroke:#E7E7E7;stroke-width:1.0;"/><polygon fill="#E7E7E7" points="100.43,147.24,108.6383,141.7972,103.1158,143.0226,101.8904,137.5,100.43,147.24" style="stroke:#E7E7E7;stroke-width:1.0;"/></g><!--link EditUserActivity to DB--><g id="link_EditUserActivity_DB"><path codeLine="15" d="M188.82,87.79 C201.09,106.83 212.351,124.3258 223.861,142.1958 " fill="none" id="EditUserActivity-to-DB" style="stroke:#E7E7E7;stroke-width:1.0;"/><polygon fill="#E7E7E7" points="227.11,147.24,225.5994,137.5077,224.4025,143.0365,218.8737,141.8396,227.11,147.24" style="stroke:#E7E7E7;stroke-width:1.0;"/></g><!--SRC=[Iyv9B2vMS4t9B0ajJYroJ2x9BCiigQpcqbN8oKzC0Ocv99OaQcW21LAXYg02jLnSoM3DmQd5nPdvURw9UOdfgKNLNDeAxgbWXNw9kQd82bsSG9Ab1Ic99QaWUOWSkjqAkhfsQ6PYL-FY1000]--></g></svg>