<svg xmlns="http://www.w3.org/2000/svg" xmlns:xlink="http://www.w3.org/1999/xlink" contentStyleType="text/css" height="310px" preserveAspectRatio="none" style="width:348px;height:310px;background:#1B1B1B;" version="1.1" viewBox="0 0 348 310" width="348px" zoomAndPan="magnify"><defs/><g><rect fill="#1B1B1B" height="310" style="stroke:none;stroke-width:1.0;" width="348" x="0" y="0"/><!--class LoginActivity--><g id="elem_LoginActivity"><rect codeLine="1" fill="#313139" height="64.2969" id="LoginActivity" rx="2.5" ry="2.5" style="stroke:#E7E7E7;stroke-width:0.5;" width="151.4395" x="88.97" y="7"/><ellipse cx="116.94" cy="23" fill="#2E5233" rx="11" ry="11" style="stroke:#E7E7E7;stroke-width:1.0;"/><path d="M119.9088,28.6406 Q119.3306,28.9375 118.69,29.0781 Q118.0494,29.2344 117.3463,29.2344 Q114.8463,29.2344 113.5181,27.5938 Q112.2056,25.9375 112.2056,22.8125 Q112.2056,19.6875 113.5181,18.0313 Q114.8463,16.375 117.3463,16.375 Q118.0494,16.375 118.69,16.5313 Q119.3463,16.6875 119.9088,16.9844 L119.9088,19.7031 Q119.2838,19.125 118.69,18.8594 Q118.0963,18.5781 117.4713,18.5781 Q116.1275,18.5781 115.44,19.6563 Q114.7525,20.7188 114.7525,22.8125 Q114.7525,24.9063 115.44,25.9844 Q116.1275,27.0469 117.4713,27.0469 Q118.0963,27.0469 118.69,26.7813 Q119.2838,26.5 119.9088,25.9219 L119.9088,28.6406 Z " fill="#FFFFFF"/><text fill="#FFFFFF" font-family="sans-serif" font-size="14" lengthAdjust="spacing" textLength="90.6172" x="133.8222" y="27.8467">LoginActivity</text><line style="stroke:#E7E7E7;stroke-width:0.5;" x1="89.97" x2="239.4095" y1="39" y2="39"/><line style="stroke:#E7E7E7;stroke-width:0.5;" x1="89.97" x2="239.4095" y1="47" y2="47"/><rect fill="#F24D5C" height="6" style="stroke:#C82930;stroke-width:1.0;" width="6" x="96.97" y="57.6484"/><text fill="#FFFFFF" font-family="sans-serif" font-size="14" lengthAdjust="spacing" textLength="125.4395" x="108.97" y="63.9951">btnLoginOnClick()</text></g><!--class LoginManager--><g id="elem_LoginManager"><rect codeLine="5" fill="#313139" height="64.2969" id="LoginManager" rx="2.5" ry="2.5" style="stroke:#E7E7E7;stroke-width:0.5;" width="131.3809" x="7" y="131.29"/><ellipse cx="22" cy="147.29" fill="#2E5233" rx="11" ry="11" style="stroke:#E7E7E7;stroke-width:1.0;"/><path d="M24.9688,152.9306 Q24.3906,153.2275 23.75,153.3681 Q23.1094,153.5244 22.4063,153.5244 Q19.9063,153.5244 18.5781,151.8837 Q17.2656,150.2275 17.2656,147.1025 Q17.2656,143.9775 18.5781,142.3212 Q19.9063,140.665 22.4063,140.665 Q23.1094,140.665 23.75,140.8212 Q24.4063,140.9775 24.9688,141.2744 L24.9688,143.9931 Q24.3438,143.415 23.75,143.1494 Q23.1563,142.8681 22.5313,142.8681 Q21.1875,142.8681 20.5,143.9462 Q19.8125,145.0087 19.8125,147.1025 Q19.8125,149.1962 20.5,150.2744 Q21.1875,151.3369 22.5313,151.3369 Q23.1563,151.3369 23.75,151.0712 Q24.3438,150.79 24.9688,150.2119 L24.9688,152.9306 Z " fill="#FFFFFF"/><text fill="#FFFFFF" font-family="sans-serif" font-size="14" lengthAdjust="spacing" textLength="99.3809" x="36" y="152.1367">LoginManager</text><line style="stroke:#E7E7E7;stroke-width:0.5;" x1="8" x2="137.3809" y1="163.29" y2="163.29"/><line style="stroke:#E7E7E7;stroke-width:0.5;" x1="8" x2="137.3809" y1="171.29" y2="171.29"/><ellipse cx="18" cy="184.9384" fill="#84BE84" rx="3" ry="3" style="stroke:#038048;stroke-width:1.0;"/><text fill="#FFFFFF" font-family="sans-serif" font-size="14" lengthAdjust="spacing" textLength="105.123" x="27" y="188.2851">attemptLogin()</text></g><!--class SessionManager--><g id="elem_SessionManager"><rect codeLine="9" fill="#313139" height="64.2969" id="SessionManager" rx="2.5" ry="2.5" style="stroke:#E7E7E7;stroke-width:0.5;" width="167.668" x="173.86" y="131.29"/><ellipse cx="198.2586" cy="147.29" fill="#2E5233" rx="11" ry="11" style="stroke:#E7E7E7;stroke-width:1.0;"/><path d="M201.2273,152.9306 Q200.6492,153.2275 200.0086,153.3681 Q199.368,153.5244 198.6648,153.5244 Q196.1648,153.5244 194.8367,151.8837 Q193.5242,150.2275 193.5242,147.1025 Q193.5242,143.9775 194.8367,142.3212 Q196.1648,140.665 198.6648,140.665 Q199.368,140.665 200.0086,140.8212 Q200.6648,140.9775 201.2273,141.2744 L201.2273,143.9931 Q200.6023,143.415 200.0086,143.1494 Q199.4148,142.8681 198.7898,142.8681 Q197.4461,142.8681 196.7586,143.9462 Q196.0711,145.0087 196.0711,147.1025 Q196.0711,149.1962 196.7586,150.2744 Q197.4461,151.3369 198.7898,151.3369 Q199.4148,151.3369 200.0086,151.0712 Q200.6023,150.79 201.2273,150.2119 L201.2273,152.9306 Z " fill="#FFFFFF"/><text fill="#FFFFFF" font-family="sans-serif" font-size="14" lengthAdjust="spacing" textLength="114.7822" x="214.3472" y="152.1367">SessionManager</text><line style="stroke:#E7E7E7;stroke-width:0.5;" x1="174.86" x2="340.528" y1="163.29" y2="163.29"/><ellipse cx="184.86" cy="176.9384" fill="none" rx="3" ry="3" style="stroke:#038048;stroke-width:1.0;"/><text fill="#FFFFFF" font-family="sans-serif" font-size="14" lengthAdjust="spacing" textLength="141.668" x="193.86" y="180.2851">isLoggenIn: Boolean</text><line style="stroke:#E7E7E7;stroke-width:0.5;" x1="174.86" x2="340.528" y1="187.5869" y2="187.5869"/></g><!--class DB--><g id="elem_DB"><rect codeLine="13" fill="#313139" height="48" id="DB" rx="2.5" ry="2.5" style="stroke:#E7E7E7;stroke-width:0.5;" width="52.3848" x="46.5" y="255.59"/><ellipse cx="61.5" cy="271.59" fill="#2E5233" rx="11" ry="11" style="stroke:#E7E7E7;stroke-width:1.0;"/><path d="M64.4688,277.2306 Q63.8906,277.5275 63.25,277.6681 Q62.6094,277.8244 61.9063,277.8244 Q59.4063,277.8244 58.0781,276.1838 Q56.7656,274.5275 56.7656,271.4025 Q56.7656,268.2775 58.0781,266.6213 Q59.4063,264.965 61.9063,264.965 Q62.6094,264.965 63.25,265.1213 Q63.9063,265.2775 64.4688,265.5744 L64.4688,268.2931 Q63.8438,267.715 63.25,267.4494 Q62.6563,267.1681 62.0313,267.1681 Q60.6875,267.1681 60,268.2463 Q59.3125,269.3088 59.3125,271.4025 Q59.3125,273.4963 60,274.5744 Q60.6875,275.6369 62.0313,275.6369 Q62.6563,275.6369 63.25,275.3713 Q63.8438,275.09 64.4688,274.5119 L64.4688,277.2306 Z " fill="#FFFFFF"/><text fill="#FFFFFF" font-family="sans-serif" font-size="14" lengthAdjust="spacing" textLength="20.3848" x="75.5" y="276.4367">DB</text><line style="stroke:#E7E7E7;stroke-width:0.5;" x1="47.5" x2="97.8848" y1="287.59" y2="287.59"/><line style="stroke:#E7E7E7;stroke-width:0.5;" x1="47.5" x2="97.8848" y1="295.59" y2="295.59"/></g><!--link LoginActivity to LoginManager--><g id="link_LoginActivity_LoginManager"><path codeLine="17" d="M141,71.64 C127.26,89.9 113.6267,108.0151 99.9067,126.2551 " fill="none" id="LoginActivity-to-LoginManager" style="stroke:#E7E7E7;stroke-width:1.0;"/><polygon fill="#E7E7E7" points="96.3,131.05,104.9067,126.2621,99.3056,127.0542,98.5135,121.4531,96.3,131.05" style="stroke:#E7E7E7;stroke-width:1.0;"/></g><!--link LoginActivity to SessionManager--><g id="link_LoginActivity_SessionManager"><path codeLine="18" d="M188.64,71.64 C202.53,89.9 216.3182,108.034 230.1882,126.274 " fill="none" id="LoginActivity-to-SessionManager" style="stroke:#E7E7E7;stroke-width:1.0;"/><polygon fill="#E7E7E7" points="233.82,131.05,231.5564,121.4648,230.7935,127.07,225.1883,126.3072,233.82,131.05" style="stroke:#E7E7E7;stroke-width:1.0;"/></g><!--link LoginManager to DB--><g id="link_LoginManager_DB"><path codeLine="19" d="M72.69,195.94 C72.69,214.68 72.69,232.06 72.69,249.17 " fill="none" id="LoginManager-to-DB" style="stroke:#E7E7E7;stroke-width:1.0;"/><polygon fill="#E7E7E7" points="72.69,255.17,76.69,246.17,72.69,250.17,68.69,246.17,72.69,255.17" style="stroke:#E7E7E7;stroke-width:1.0;"/></g><!--SRC=[Iyv9B2vMyCbFpynpJ2x9BCiigQpcqbL8Aia3Y_ddEUTa9cThQ7BLSd4b8zJw9kObfgSMLNDfAoIMbAJc5fI0XP7L1QSM5sVc8wlCB0OgIa_DyyopKd3Apyz9JSn3A7TngkO2yL2Seg2hQuTY8HPfL7kua5M3vLsS0000]--></g></svg>