<svg xmlns="http://www.w3.org/2000/svg" xmlns:xlink="http://www.w3.org/1999/xlink" contentStyleType="text/css" height="408px" preserveAspectRatio="none" style="width:228px;height:408px;background:#FFFFFF;" version="1.1" viewBox="0 0 228 408" width="228px" zoomAndPan="magnify"><defs/><g><!--class MapsFragment--><g id="elem_MapsFragment"><rect codeLine="1" fill="#F1F1F1" height="113.1875" id="MapsFragment" rx="2.5" ry="2.5" style="stroke:#181818;stroke-width:0.5;" width="213.626" x="7.5" y="7"/><ellipse cx="57.6997" cy="23" fill="#ADD1B2" rx="11" ry="11" style="stroke:#181818;stroke-width:1.0;"/><path d="M60.6685,28.6406 Q60.0903,28.9375 59.4497,29.0781 Q58.8091,29.2344 58.106,29.2344 Q55.606,29.2344 54.2778,27.5938 Q52.9653,25.9375 52.9653,22.8125 Q52.9653,19.6875 54.2778,18.0313 Q55.606,16.375 58.106,16.375 Q58.8091,16.375 59.4497,16.5313 Q60.106,16.6875 60.6685,16.9844 L60.6685,19.7031 Q60.0435,19.125 59.4497,18.8594 Q58.856,18.5781 58.231,18.5781 Q56.8872,18.5781 56.1997,19.6563 Q55.5122,20.7188 55.5122,22.8125 Q55.5122,24.9063 56.1997,25.9844 Q56.8872,27.0469 58.231,27.0469 Q58.856,27.0469 59.4497,26.7813 Q60.0435,26.5 60.6685,25.9219 L60.6685,28.6406 Z " fill="#000000"/><text fill="#000000" font-family="sans-serif" font-size="14" lengthAdjust="spacing" textLength="104.7266" x="78.1997" y="27.8467">MapsFragment</text><line style="stroke:#181818;stroke-width:0.5;" x1="8.5" x2="220.126" y1="39" y2="39"/><rect fill="none" height="6" style="stroke:#C82930;stroke-width:1.0;" width="6" x="15.5" y="49.6484"/><text fill="#000000" font-family="sans-serif" font-size="14" lengthAdjust="spacing" textLength="119.1846" x="27.5" y="55.9951">map: GoogleMap</text><line style="stroke:#181818;stroke-width:0.5;" x1="8.5" x2="220.126" y1="63.2969" y2="63.2969"/><rect fill="#F24D5C" height="6" style="stroke:#C82930;stroke-width:1.0;" width="6" x="15.5" y="73.9453"/><text fill="#000000" font-family="sans-serif" font-size="14" lengthAdjust="spacing" textLength="187.626" x="27.5" y="80.292">checkLocationPermission()</text><rect fill="#F24D5C" height="6" style="stroke:#C82930;stroke-width:1.0;" width="6" x="15.5" y="90.2422"/><text fill="#000000" font-family="sans-serif" font-size="14" lengthAdjust="spacing" textLength="169.4766" x="27.5" y="96.5889">getLastKnownLocation()</text><rect fill="#F24D5C" height="6" style="stroke:#C82930;stroke-width:1.0;" width="6" x="15.5" y="106.5391"/><text fill="#000000" font-family="sans-serif" font-size="14" lengthAdjust="spacing" textLength="142.0986" x="27.5" y="112.8857">drawUserTrainings()</text></g><!--class MapsViewModel--><g id="elem_MapsViewModel"><rect codeLine="8" fill="#F1F1F1" height="80.5938" id="MapsViewModel" rx="2.5" ry="2.5" style="stroke:#181818;stroke-width:0.5;" width="180.7041" x="24" y="180"/><ellipse cx="55.3354" cy="196" fill="#ADD1B2" rx="11" ry="11" style="stroke:#181818;stroke-width:1.0;"/><path d="M58.3041,201.6406 Q57.726,201.9375 57.0854,202.0781 Q56.4447,202.2344 55.7416,202.2344 Q53.2416,202.2344 51.9135,200.5938 Q50.601,198.9375 50.601,195.8125 Q50.601,192.6875 51.9135,191.0313 Q53.2416,189.375 55.7416,189.375 Q56.4447,189.375 57.0854,189.5313 Q57.7416,189.6875 58.3041,189.9844 L58.3041,192.7031 Q57.6791,192.125 57.0854,191.8594 Q56.4916,191.5781 55.8666,191.5781 Q54.5229,191.5781 53.8354,192.6563 Q53.1479,193.7188 53.1479,195.8125 Q53.1479,197.9063 53.8354,198.9844 Q54.5229,200.0469 55.8666,200.0469 Q56.4916,200.0469 57.0854,199.7813 Q57.6791,199.5 58.3041,198.9219 L58.3041,201.6406 Z " fill="#000000"/><text fill="#000000" font-family="sans-serif" font-size="14" lengthAdjust="spacing" textLength="112.4033" x="72.9654" y="200.8467">MapsViewModel</text><line style="stroke:#181818;stroke-width:0.5;" x1="25" x2="203.7041" y1="212" y2="212"/><rect fill="none" height="6" style="stroke:#C82930;stroke-width:1.0;" width="6" x="32" y="222.6484"/><text fill="#000000" font-family="sans-serif" font-size="14" lengthAdjust="spacing" textLength="113.1895" x="44" y="228.9951">sessionManager</text><line style="stroke:#181818;stroke-width:0.5;" x1="25" x2="203.7041" y1="236.2969" y2="236.2969"/><ellipse cx="35" cy="249.9453" fill="#84BE84" rx="3" ry="3" style="stroke:#038048;stroke-width:1.0;"/><text fill="#000000" font-family="sans-serif" font-size="14" lengthAdjust="spacing" textLength="154.7041" x="44" y="253.292">loadAllUserTrainings()</text></g><!--class DB--><g id="elem_DB"><rect codeLine="14" fill="#F1F1F1" height="80.5938" id="DB" rx="2.5" ry="2.5" style="stroke:#181818;stroke-width:0.5;" width="214.8701" x="7" y="321"/><ellipse cx="99.9927" cy="337" fill="#ADD1B2" rx="11" ry="11" style="stroke:#181818;stroke-width:1.0;"/><path d="M102.9614,342.6406 Q102.3833,342.9375 101.7427,343.0781 Q101.1021,343.2344 100.3989,343.2344 Q97.8989,343.2344 96.5708,341.5938 Q95.2583,339.9375 95.2583,336.8125 Q95.2583,333.6875 96.5708,332.0313 Q97.8989,330.375 100.3989,330.375 Q101.1021,330.375 101.7427,330.5313 Q102.3989,330.6875 102.9614,330.9844 L102.9614,333.7031 Q102.3364,333.125 101.7427,332.8594 Q101.1489,332.5781 100.5239,332.5781 Q99.1802,332.5781 98.4927,333.6563 Q97.8052,334.7188 97.8052,336.8125 Q97.8052,338.9063 98.4927,339.9844 Q99.1802,341.0469 100.5239,341.0469 Q101.1489,341.0469 101.7427,340.7813 Q102.3364,340.5 102.9614,339.9219 L102.9614,342.6406 Z " fill="#000000"/><text fill="#000000" font-family="sans-serif" font-size="14" lengthAdjust="spacing" textLength="20.3848" x="120.4927" y="341.8467">DB</text><line style="stroke:#181818;stroke-width:0.5;" x1="8" x2="220.8701" y1="353" y2="353"/><line style="stroke:#181818;stroke-width:0.5;" x1="8" x2="220.8701" y1="361" y2="361"/><ellipse cx="18" cy="374.6484" fill="#84BE84" rx="3" ry="3" style="stroke:#038048;stroke-width:1.0;"/><text fill="#000000" font-family="sans-serif" font-size="14" lengthAdjust="spacing" textLength="185.6094" x="27" y="377.9951">loadAllTrainingsByUserId()</text><ellipse cx="18" cy="390.9453" fill="#84BE84" rx="3" ry="3" style="stroke:#038048;stroke-width:1.0;"/><text fill="#000000" font-family="sans-serif" font-size="14" lengthAdjust="spacing" textLength="188.8701" x="27" y="394.292">getLocationsByTrainingId()</text></g><!--link MapsFragment to MapsViewModel--><g id="link_MapsFragment_MapsViewModel"><path codeLine="20" d="M114.5,120.02 C114.5,139.83 114.5,155.72 114.5,173.91 " fill="none" id="MapsFragment-to-MapsViewModel" style="stroke:#181818;stroke-width:1.0;"/><polygon fill="#181818" points="114.5,179.91,118.5,170.91,114.5,174.91,110.5,170.91,114.5,179.91" style="stroke:#181818;stroke-width:1.0;"/></g><!--link MapsViewModel to DB--><g id="link_MapsViewModel_DB"><path codeLine="21" d="M114.5,261.33 C114.5,279.94 114.5,296.05 114.5,314.66 " fill="none" id="MapsViewModel-to-DB" style="stroke:#181818;stroke-width:1.0;"/><polygon fill="#181818" points="114.5,320.66,118.5,311.66,114.5,315.66,110.5,311.66,114.5,320.66" style="stroke:#181818;stroke-width:1.0;"/></g><!--SRC=[NP112i8m44NtEKMMIka5N0YMeeWjk53tGpB4O9gKJA68U7URqgIjsIJCV_FdJuG18bv3IqSFga7RyG_ZqyaRQ7Vyv9moE21pNJnHl2edeDFENj4tccXuRROpeh2hWBgBTRsDv5AN7lexeRzvq5PRHPFuPUCbKgw7nhvs4iqo6E4ui0OB2dsgPyQ1F1ZpPyoZCul6PP7SOa_YYtTeFykKDWkxJ2iCQWGd8jYk_Y_Fz-lWRBr6qClY1m00]--></g></svg>