<svg xmlns="http://www.w3.org/2000/svg" xmlns:xlink="http://www.w3.org/1999/xlink" contentStyleType="text/css" height="283px" preserveAspectRatio="none" style="width:235px;height:283px;background:#FFFFFF;" version="1.1" viewBox="0 0 235 283" width="235px" zoomAndPan="magnify"><defs/><g><!--class NewTrainingActivity--><g id="elem_NewTrainingActivity"><rect codeLine="1" fill="#F1F1F1" height="129.4844" id="NewTrainingActivity" rx="2.5" ry="2.5" style="stroke:#181818;stroke-width:0.5;" width="221.9385" x="7" y="7"/><ellipse cx="44.2754" cy="23" fill="#ADD1B2" rx="11" ry="11" style="stroke:#181818;stroke-width:1.0;"/><path d="M47.2442,28.6406 Q46.6661,28.9375 46.0254,29.0781 Q45.3848,29.2344 44.6817,29.2344 Q42.1817,29.2344 40.8536,27.5938 Q39.5411,25.9375 39.5411,22.8125 Q39.5411,19.6875 40.8536,18.0313 Q42.1817,16.375 44.6817,16.375 Q45.3848,16.375 46.0254,16.5313 Q46.6817,16.6875 47.2442,16.9844 L47.2442,19.7031 Q46.6192,19.125 46.0254,18.8594 Q45.4317,18.5781 44.8067,18.5781 Q43.4629,18.5781 42.7754,19.6563 Q42.0879,20.7188 42.0879,22.8125 Q42.0879,24.9063 42.7754,25.9844 Q43.4629,27.0469 44.8067,27.0469 Q45.4317,27.0469 46.0254,26.7813 Q46.6192,26.5 47.2442,25.9219 L47.2442,28.6406 Z " fill="#000000"/><text fill="#000000" font-family="sans-serif" font-size="14" lengthAdjust="spacing" textLength="140.4375" x="63.2255" y="27.8467">NewTrainingActivity</text><line style="stroke:#181818;stroke-width:0.5;" x1="8" x2="227.9385" y1="39" y2="39"/><rect fill="none" height="6" style="stroke:#C82930;stroke-width:1.0;" width="6" x="15" y="49.6484"/><text fill="#000000" font-family="sans-serif" font-size="14" lengthAdjust="spacing" textLength="158.1836" x="27" y="55.9951">LocationProviderClient</text><rect fill="none" height="6" style="stroke:#C82930;stroke-width:1.0;" width="6" x="15" y="65.9453"/><text fill="#000000" font-family="sans-serif" font-size="14" lengthAdjust="spacing" textLength="109.3545" x="27" y="72.292">SensorManager</text><line style="stroke:#181818;stroke-width:0.5;" x1="8" x2="227.9385" y1="79.5938" y2="79.5938"/><ellipse cx="18" cy="93.2422" fill="#84BE84" rx="3" ry="3" style="stroke:#038048;stroke-width:1.0;"/><text fill="#000000" font-family="sans-serif" font-size="14" lengthAdjust="spacing" textLength="135.7822" x="27" y="96.5889">start/stopTraining()</text><rect fill="#F24D5C" height="6" style="stroke:#C82930;stroke-width:1.0;" width="6" x="15" y="106.5391"/><text fill="#000000" font-family="sans-serif" font-size="14" lengthAdjust="spacing" textLength="195.9385" x="27" y="112.8857">start/stopLocationUpdates()</text><rect fill="#F24D5C" height="6" style="stroke:#C82930;stroke-width:1.0;" width="6" x="15" y="122.8359"/><text fill="#000000" font-family="sans-serif" font-size="14" lengthAdjust="spacing" textLength="154.4102" x="27" y="129.1826">saveTrainingSession()</text></g><!--class DB--><g id="elem_DB"><rect codeLine="9" fill="#F1F1F1" height="80.5938" id="DB" rx="2.5" ry="2.5" style="stroke:#181818;stroke-width:0.5;" width="179.5967" x="28" y="196"/><ellipse cx="103.356" cy="212" fill="#ADD1B2" rx="11" ry="11" style="stroke:#181818;stroke-width:1.0;"/><path d="M106.3247,217.6406 Q105.7466,217.9375 105.106,218.0781 Q104.4653,218.2344 103.7622,218.2344 Q101.2622,218.2344 99.9341,216.5938 Q98.6216,214.9375 98.6216,211.8125 Q98.6216,208.6875 99.9341,207.0313 Q101.2622,205.375 103.7622,205.375 Q104.4653,205.375 105.106,205.5313 Q105.7622,205.6875 106.3247,205.9844 L106.3247,208.7031 Q105.6997,208.125 105.106,207.8594 Q104.5122,207.5781 103.8872,207.5781 Q102.5435,207.5781 101.856,208.6563 Q101.1685,209.7188 101.1685,211.8125 Q101.1685,213.9063 101.856,214.9844 Q102.5435,216.0469 103.8872,216.0469 Q104.5122,216.0469 105.106,215.7813 Q105.6997,215.5 106.3247,214.9219 L106.3247,217.6406 Z " fill="#000000"/><text fill="#000000" font-family="sans-serif" font-size="14" lengthAdjust="spacing" textLength="20.3848" x="123.856" y="216.8467">DB</text><line style="stroke:#181818;stroke-width:0.5;" x1="29" x2="206.5967" y1="228" y2="228"/><line style="stroke:#181818;stroke-width:0.5;" x1="29" x2="206.5967" y1="236" y2="236"/><text fill="#000000" font-family="sans-serif" font-size="14" lengthAdjust="spacing" textLength="167.5967" x="34" y="252.9951">insertTrainingLocation()</text><text fill="#000000" font-family="sans-serif" font-size="14" lengthAdjust="spacing" textLength="161.5537" x="34" y="269.292">insertTrainingSession()</text></g><!--link NewTrainingActivity to DB--><g id="link_NewTrainingActivity_DB"><path codeLine="14" d="M118,136.45 C118,156.43 118,171.89 118,189.7 " fill="none" id="NewTrainingActivity-to-DB" style="stroke:#181818;stroke-width:1.0;"/><polygon fill="#181818" points="118,195.7,122,186.7,118,190.7,114,186.7,118,195.7" style="stroke:#181818;stroke-width:1.0;"/></g><!--SRC=[ROzD2i9034RtFSKi5HcyWU3FKgLGFK2OXX8ecPA44H7lxj1sb89PvdrvV0azgBehFcu2nCJTFXWbigTxLIwFFyS0Hf5hYObQb6DFo3Qn1bcZN82XGnbN6pKGswh5eGXNwody8qLv7remr6y04fQZ1bLp8gDtLOMnu-amLo9M52l98fijIxZG_7lI-rqMVm00]--></g></svg>