<svg xmlns="http://www.w3.org/2000/svg" xmlns:xlink="http://www.w3.org/1999/xlink" contentStyleType="text/css" height="392px" preserveAspectRatio="none" style="width:329px;height:392px;background:#1B1B1B;" version="1.1" viewBox="0 0 329 392" width="329px" zoomAndPan="magnify"><defs/><g><rect fill="#1B1B1B" height="392" style="stroke:none;stroke-width:1.0;" width="329" x="0" y="0"/><!--class SessionManager--><g id="elem_SessionManager"><rect codeLine="1" fill="#313139" height="113.1875" id="SessionManager" rx="2.5" ry="2.5" style="stroke:#E7E7E7;stroke-width:0.5;" width="167.7363" x="7" y="131.3"/><ellipse cx="31.4293" cy="147.3" fill="#2E5233" rx="11" ry="11" style="stroke:#E7E7E7;stroke-width:1.0;"/><path d="M34.3981,152.9406 Q33.82,153.2375 33.1793,153.3781 Q32.5387,153.5344 31.8356,153.5344 Q29.3356,153.5344 28.0075,151.8937 Q26.695,150.2375 26.695,147.1125 Q26.695,143.9875 28.0075,142.3312 Q29.3356,140.675 31.8356,140.675 Q32.5387,140.675 33.1793,140.8312 Q33.8356,140.9875 34.3981,141.2844 L34.3981,144.0031 Q33.7731,143.425 33.1793,143.1594 Q32.5856,142.8781 31.9606,142.8781 Q30.6168,142.8781 29.9293,143.9562 Q29.2418,145.0187 29.2418,147.1125 Q29.2418,149.2062 29.9293,150.2844 Q30.6168,151.3469 31.9606,151.3469 Q32.5856,151.3469 33.1793,151.0812 Q33.7731,150.8 34.3981,150.2219 L34.3981,152.9406 Z " fill="#FFFFFF"/><text fill="#FFFFFF" font-family="sans-serif" font-size="14" lengthAdjust="spacing" textLength="114.7822" x="47.5248" y="152.1467">SessionManager</text><line style="stroke:#E7E7E7;stroke-width:0.5;" x1="8" x2="173.7363" y1="163.3" y2="163.3"/><ellipse cx="18" cy="176.9484" fill="none" rx="3" ry="3" style="stroke:#038048;stroke-width:1.0;"/><text fill="#FFFFFF" font-family="sans-serif" font-size="14" lengthAdjust="spacing" textLength="141.6816" x="27" y="180.2951">isLoggedIn: Boolean</text><line style="stroke:#E7E7E7;stroke-width:0.5;" x1="8" x2="173.7363" y1="187.5969" y2="187.5969"/><ellipse cx="18" cy="201.2453" fill="#84BE84" rx="3" ry="3" style="stroke:#038048;stroke-width:1.0;"/><text fill="#FFFFFF" font-family="sans-serif" font-size="14" lengthAdjust="spacing" textLength="70.335" x="27" y="204.592">setLogin()</text><ellipse cx="18" cy="217.5422" fill="#84BE84" rx="3" ry="3" style="stroke:#038048;stroke-width:1.0;"/><text fill="#FFFFFF" font-family="sans-serif" font-size="14" lengthAdjust="spacing" textLength="141.7363" x="27" y="220.8889">getProfileImageUri()</text><ellipse cx="18" cy="233.8391" fill="#84BE84" rx="3" ry="3" style="stroke:#038048;stroke-width:1.0;"/><text fill="#FFFFFF" font-family="sans-serif" font-size="14" lengthAdjust="spacing" textLength="105.5264" x="27" y="237.1857">getUsername()</text></g><!--class DB--><g id="elem_DB"><rect codeLine="9" fill="#313139" height="64.2969" id="DB" rx="2.5" ry="2.5" style="stroke:#E7E7E7;stroke-width:0.5;" width="105.4746" x="210.13" y="155.74"/><ellipse cx="249.0204" cy="171.74" fill="#2E5233" rx="11" ry="11" style="stroke:#E7E7E7;stroke-width:1.0;"/><path d="M251.9892,177.3806 Q251.4111,177.6775 250.7704,177.8181 Q250.1298,177.9744 249.4267,177.9744 Q246.9267,177.9744 245.5986,176.3337 Q244.2861,174.6775 244.2861,171.5525 Q244.2861,168.4275 245.5986,166.7712 Q246.9267,165.115 249.4267,165.115 Q250.1298,165.115 250.7704,165.2712 Q251.4267,165.4275 251.9892,165.7244 L251.9892,168.4431 Q251.3642,167.865 250.7704,167.5994 Q250.1767,167.3181 249.5517,167.3181 Q248.2079,167.3181 247.5204,168.3962 Q246.8329,169.4587 246.8329,171.5525 Q246.8329,173.6462 247.5204,174.7244 Q248.2079,175.7869 249.5517,175.7869 Q250.1767,175.7869 250.7704,175.5212 Q251.3642,175.24 251.9892,174.6619 L251.9892,177.3806 Z " fill="#FFFFFF"/><text fill="#FFFFFF" font-family="sans-serif" font-size="14" lengthAdjust="spacing" textLength="20.3848" x="268.3294" y="176.5867">DB</text><line style="stroke:#E7E7E7;stroke-width:0.5;" x1="211.13" x2="314.6046" y1="187.74" y2="187.74"/><line style="stroke:#E7E7E7;stroke-width:0.5;" x1="211.13" x2="314.6046" y1="195.74" y2="195.74"/><ellipse cx="221.13" cy="209.3884" fill="#84BE84" rx="3" ry="3" style="stroke:#038048;stroke-width:1.0;"/><text fill="#FFFFFF" font-family="sans-serif" font-size="14" lengthAdjust="spacing" textLength="79.4746" x="230.13" y="212.7351">userLogin()</text></g><!--class SharedPreferences--><g id="elem_SharedPreferences"><rect codeLine="13" fill="#313139" height="80.5938" id="SharedPreferences" rx="2.5" ry="2.5" style="stroke:#E7E7E7;stroke-width:0.5;" width="164.7949" x="8.47" y="304.49"/><ellipse cx="23.47" cy="320.49" fill="#2E5233" rx="11" ry="11" style="stroke:#E7E7E7;stroke-width:1.0;"/><path d="M26.4388,326.1306 Q25.8606,326.4275 25.22,326.5681 Q24.5794,326.7244 23.8763,326.7244 Q21.3763,326.7244 20.0481,325.0837 Q18.7356,323.4275 18.7356,320.3025 Q18.7356,317.1775 20.0481,315.5212 Q21.3763,313.865 23.8763,313.865 Q24.5794,313.865 25.22,314.0212 Q25.8763,314.1775 26.4388,314.4744 L26.4388,317.1931 Q25.8138,316.615 25.22,316.3494 Q24.6263,316.0681 24.0013,316.0681 Q22.6575,316.0681 21.97,317.1462 Q21.2825,318.2087 21.2825,320.3025 Q21.2825,322.3962 21.97,323.4744 Q22.6575,324.5369 24.0013,324.5369 Q24.6263,324.5369 25.22,324.2712 Q25.8138,323.99 26.4388,323.4119 L26.4388,326.1306 Z " fill="#FFFFFF"/><text fill="#FFFFFF" font-family="sans-serif" font-size="14" lengthAdjust="spacing" textLength="132.7949" x="37.47" y="325.3367">SharedPreferences</text><line style="stroke:#E7E7E7;stroke-width:0.5;" x1="9.47" x2="172.2649" y1="336.49" y2="336.49"/><ellipse cx="19.47" cy="350.1384" fill="none" rx="3" ry="3" style="stroke:#038048;stroke-width:1.0;"/><text fill="#FFFFFF" font-family="sans-serif" font-size="14" lengthAdjust="spacing" textLength="73.2129" x="28.47" y="353.4851">UserName</text><ellipse cx="19.47" cy="366.4353" fill="none" rx="3" ry="3" style="stroke:#038048;stroke-width:1.0;"/><text fill="#FFFFFF" font-family="sans-serif" font-size="14" lengthAdjust="spacing" textLength="24.1035" x="28.47" y="369.782">URI</text><line style="stroke:#E7E7E7;stroke-width:0.5;" x1="9.47" x2="172.2649" y1="377.0837" y2="377.0837"/></g><!--class LoginManager--><g id="elem_LoginManager"><rect codeLine="18" fill="#313139" height="64.2969" id="LoginManager" rx="2.5" ry="2.5" style="stroke:#E7E7E7;stroke-width:0.5;" width="131.3809" x="191.18" y="7"/><ellipse cx="206.18" cy="23" fill="#2E5233" rx="11" ry="11" style="stroke:#E7E7E7;stroke-width:1.0;"/><path d="M209.1488,28.6406 Q208.5706,28.9375 207.93,29.0781 Q207.2894,29.2344 206.5863,29.2344 Q204.0863,29.2344 202.7581,27.5938 Q201.4456,25.9375 201.4456,22.8125 Q201.4456,19.6875 202.7581,18.0313 Q204.0863,16.375 206.5863,16.375 Q207.2894,16.375 207.93,16.5313 Q208.5863,16.6875 209.1488,16.9844 L209.1488,19.7031 Q208.5238,19.125 207.93,18.8594 Q207.3363,18.5781 206.7113,18.5781 Q205.3675,18.5781 204.68,19.6563 Q203.9925,20.7188 203.9925,22.8125 Q203.9925,24.9063 204.68,25.9844 Q205.3675,27.0469 206.7113,27.0469 Q207.3363,27.0469 207.93,26.7813 Q208.5238,26.5 209.1488,25.9219 L209.1488,28.6406 Z " fill="#FFFFFF"/><text fill="#FFFFFF" font-family="sans-serif" font-size="14" lengthAdjust="spacing" textLength="99.3809" x="220.18" y="27.8467">LoginManager</text><line style="stroke:#E7E7E7;stroke-width:0.5;" x1="192.18" x2="321.5609" y1="39" y2="39"/><line style="stroke:#E7E7E7;stroke-width:0.5;" x1="192.18" x2="321.5609" y1="47" y2="47"/><ellipse cx="202.18" cy="60.6484" fill="#84BE84" rx="3" ry="3" style="stroke:#038048;stroke-width:1.0;"/><text fill="#FFFFFF" font-family="sans-serif" font-size="14" lengthAdjust="spacing" textLength="105.123" x="211.18" y="63.9951">attemptLogin()</text></g><!--class MainActivity--><g id="elem_MainActivity"><rect codeLine="22" fill="#313139" height="64.2969" id="MainActivity" rx="2.5" ry="2.5" style="stroke:#E7E7E7;stroke-width:0.5;" width="118.0234" x="31.86" y="7"/><ellipse cx="46.86" cy="23" fill="#2E5233" rx="11" ry="11" style="stroke:#E7E7E7;stroke-width:1.0;"/><path d="M49.8288,28.6406 Q49.2506,28.9375 48.61,29.0781 Q47.9694,29.2344 47.2663,29.2344 Q44.7663,29.2344 43.4381,27.5938 Q42.1256,25.9375 42.1256,22.8125 Q42.1256,19.6875 43.4381,18.0313 Q44.7663,16.375 47.2663,16.375 Q47.9694,16.375 48.61,16.5313 Q49.2663,16.6875 49.8288,16.9844 L49.8288,19.7031 Q49.2038,19.125 48.61,18.8594 Q48.0163,18.5781 47.3913,18.5781 Q46.0475,18.5781 45.36,19.6563 Q44.6725,20.7188 44.6725,22.8125 Q44.6725,24.9063 45.36,25.9844 Q46.0475,27.0469 47.3913,27.0469 Q48.0163,27.0469 48.61,26.7813 Q49.2038,26.5 49.8288,25.9219 L49.8288,28.6406 Z " fill="#FFFFFF"/><text fill="#FFFFFF" font-family="sans-serif" font-size="14" lengthAdjust="spacing" textLength="86.0234" x="60.86" y="27.8467">MainActivity</text><line style="stroke:#E7E7E7;stroke-width:0.5;" x1="32.86" x2="148.8834" y1="39" y2="39"/><line style="stroke:#E7E7E7;stroke-width:0.5;" x1="32.86" x2="148.8834" y1="47" y2="47"/><rect fill="#F24D5C" height="6" style="stroke:#C82930;stroke-width:1.0;" width="6" x="39.86" y="57.6484"/><text fill="#FFFFFF" font-family="sans-serif" font-size="14" lengthAdjust="spacing" textLength="89.9268" x="51.86" y="63.9951">checkLogin()</text></g><!--link MainActivity to SessionManager--><g id="link_MainActivity_SessionManager"><path codeLine="26" d="M90.87,71.63 C90.87,88.89 90.87,104.81 90.87,124.89 " fill="none" id="MainActivity-to-SessionManager" style="stroke:#E7E7E7;stroke-width:1.0;"/><polygon fill="#E7E7E7" points="90.87,130.89,94.87,121.89,90.87,125.89,86.87,121.89,90.87,130.89" style="stroke:#E7E7E7;stroke-width:1.0;"/></g><!--link SessionManager to SharedPreferences--><g id="link_SessionManager_SharedPreferences"><path codeLine="27" d="M90.87,244.81 C90.87,264.57 90.87,280.36 90.87,298.45 " fill="none" id="SessionManager-to-SharedPreferences" style="stroke:#E7E7E7;stroke-width:1.0;"/><polygon fill="#E7E7E7" points="90.87,304.45,94.87,295.45,90.87,299.45,86.87,295.45,90.87,304.45" style="stroke:#E7E7E7;stroke-width:1.0;"/></g><!--link LoginManager to DB--><g id="link_LoginManager_DB"><path codeLine="28" d="M258.16,71.63 C259.17,96.39 260.3253,124.725 261.3353,149.465 " fill="none" id="LoginManager-to-DB" style="stroke:#E7E7E7;stroke-width:1.0;"/><polygon fill="#E7E7E7" points="261.58,155.46,265.2096,146.3043,261.376,150.4642,257.2162,146.6307,261.58,155.46" style="stroke:#E7E7E7;stroke-width:1.0;"/></g><!--link LoginManager to SessionManager--><g id="link_LoginManager_SessionManager"><path codeLine="29" d="M221.26,71.63 C201.73,88.89 181.4249,106.8356 158.7149,126.9156 " fill="none" id="LoginManager-to-SessionManager" style="stroke:#E7E7E7;stroke-width:1.0;"/><polygon fill="#E7E7E7" points="154.22,130.89,163.612,127.9251,157.9658,127.578,158.3128,121.9318,154.22,130.89" style="stroke:#E7E7E7;stroke-width:1.0;"/></g><!--SRC=[PP112eCm44NtEKMMBSKBT56ek17Q8XKF4E8OX-ga96cXY7TlOf56tUN_-VFc4za9Qta9rgAcgo2Xm0pimD5Uj59GvtJagTOT2FAk1UTjfDtU2mMkCBh13lBUhrK6PxkoO4ZquFN869FJZImDt9SVpOXn7fMjC50N1XemG19iI0R8pKF2yvx_mzDsr5Gu1_tJRQ1NWNIM3j_eFWDBk6n1Fg9KFET9Sbfz0blANsBTayLbfaYMRhqbwGi0]--></g></svg>