<svg xmlns="http://www.w3.org/2000/svg" xmlns:xlink="http://www.w3.org/1999/xlink" contentStyleType="text/css" height="392px" preserveAspectRatio="none" style="width:332px;height:392px;background:#1B1B1B;" version="1.1" viewBox="0 0 332 392" width="332px" zoomAndPan="magnify"><defs/><g><rect fill="#1B1B1B" height="392" style="stroke:none;stroke-width:1.0;" width="332" x="0" y="0"/><!--class LoginManager--><g id="elem_LoginManager"><rect codeLine="1" fill="#313139" height="64.2969" id="LoginManager" rx="2.5" ry="2.5" style="stroke:#E7E7E7;stroke-width:0.5;" width="131.3809" x="194.18" y="7"/><ellipse cx="209.18" cy="23" fill="#2E5233" rx="11" ry="11" style="stroke:#E7E7E7;stroke-width:1.0;"/><path d="M212.1488,28.6406 Q211.5706,28.9375 210.93,29.0781 Q210.2894,29.2344 209.5863,29.2344 Q207.0863,29.2344 205.7581,27.5938 Q204.4456,25.9375 204.4456,22.8125 Q204.4456,19.6875 205.7581,18.0313 Q207.0863,16.375 209.5863,16.375 Q210.2894,16.375 210.93,16.5313 Q211.5863,16.6875 212.1488,16.9844 L212.1488,19.7031 Q211.5238,19.125 210.93,18.8594 Q210.3363,18.5781 209.7113,18.5781 Q208.3675,18.5781 207.68,19.6563 Q206.9925,20.7188 206.9925,22.8125 Q206.9925,24.9063 207.68,25.9844 Q208.3675,27.0469 209.7113,27.0469 Q210.3363,27.0469 210.93,26.7813 Q211.5238,26.5 212.1488,25.9219 L212.1488,28.6406 Z " fill="#FFFFFF"/><text fill="#FFFFFF" font-family="sans-serif" font-size="14" lengthAdjust="spacing" textLength="99.3809" x="223.18" y="27.8467">LoginManager</text><line style="stroke:#E7E7E7;stroke-width:0.5;" x1="195.18" x2="324.5609" y1="39" y2="39"/><line style="stroke:#E7E7E7;stroke-width:0.5;" x1="195.18" x2="324.5609" y1="47" y2="47"/><ellipse cx="205.18" cy="60.6484" fill="#84BE84" rx="3" ry="3" style="stroke:#038048;stroke-width:1.0;"/><text fill="#FFFFFF" font-family="sans-serif" font-size="14" lengthAdjust="spacing" textLength="105.123" x="214.18" y="63.9951">attemptLogin()</text></g><!--class UserFragment--><g id="elem_UserFragment"><rect codeLine="5" fill="#313139" height="64.2969" id="UserFragment" rx="2.5" ry="2.5" style="stroke:#E7E7E7;stroke-width:0.5;" width="132.1826" x="24.78" y="7"/><ellipse cx="39.9531" cy="23" fill="#2E5233" rx="11" ry="11" style="stroke:#E7E7E7;stroke-width:1.0;"/><path d="M42.9219,28.6406 Q42.3438,28.9375 41.7031,29.0781 Q41.0625,29.2344 40.3594,29.2344 Q37.8594,29.2344 36.5313,27.5938 Q35.2188,25.9375 35.2188,22.8125 Q35.2188,19.6875 36.5313,18.0313 Q37.8594,16.375 40.3594,16.375 Q41.0625,16.375 41.7031,16.5313 Q42.3594,16.6875 42.9219,16.9844 L42.9219,19.7031 Q42.2969,19.125 41.7031,18.8594 Q41.1094,18.5781 40.4844,18.5781 Q39.1406,18.5781 38.4531,19.6563 Q37.7656,20.7188 37.7656,22.8125 Q37.7656,24.9063 38.4531,25.9844 Q39.1406,27.0469 40.4844,27.0469 Q41.1094,27.0469 41.7031,26.7813 Q42.2969,26.5 42.9219,25.9219 L42.9219,28.6406 Z " fill="#FFFFFF"/><text fill="#FFFFFF" font-family="sans-serif" font-size="14" lengthAdjust="spacing" textLength="99.7979" x="53.9916" y="27.8467">UserFragment</text><line style="stroke:#E7E7E7;stroke-width:0.5;" x1="25.78" x2="155.9626" y1="39" y2="39"/><line style="stroke:#E7E7E7;stroke-width:0.5;" x1="25.78" x2="155.9626" y1="47" y2="47"/><rect fill="#F24D5C" height="6" style="stroke:#C82930;stroke-width:1.0;" width="6" x="32.78" y="57.6484"/><text fill="#FFFFFF" font-family="sans-serif" font-size="14" lengthAdjust="spacing" textLength="106.1826" x="44.78" y="63.9951">loadUserData()</text></g><!--class SessionManager--><g id="elem_SessionManager"><rect codeLine="9" fill="#313139" height="113.1875" id="SessionManager" rx="2.5" ry="2.5" style="stroke:#E7E7E7;stroke-width:0.5;" width="167.7363" x="7" y="131.3"/><ellipse cx="31.4293" cy="147.3" fill="#2E5233" rx="11" ry="11" style="stroke:#E7E7E7;stroke-width:1.0;"/><path d="M34.3981,152.9406 Q33.82,153.2375 33.1793,153.3781 Q32.5387,153.5344 31.8356,153.5344 Q29.3356,153.5344 28.0075,151.8937 Q26.695,150.2375 26.695,147.1125 Q26.695,143.9875 28.0075,142.3312 Q29.3356,140.675 31.8356,140.675 Q32.5387,140.675 33.1793,140.8312 Q33.8356,140.9875 34.3981,141.2844 L34.3981,144.0031 Q33.7731,143.425 33.1793,143.1594 Q32.5856,142.8781 31.9606,142.8781 Q30.6168,142.8781 29.9293,143.9562 Q29.2418,145.0187 29.2418,147.1125 Q29.2418,149.2062 29.9293,150.2844 Q30.6168,151.3469 31.9606,151.3469 Q32.5856,151.3469 33.1793,151.0812 Q33.7731,150.8 34.3981,150.2219 L34.3981,152.9406 Z " fill="#FFFFFF"/><text fill="#FFFFFF" font-family="sans-serif" font-size="14" lengthAdjust="spacing" textLength="114.7822" x="47.5248" y="152.1467">SessionManager</text><line style="stroke:#E7E7E7;stroke-width:0.5;" x1="8" x2="173.7363" y1="163.3" y2="163.3"/><ellipse cx="18" cy="176.9484" fill="none" rx="3" ry="3" style="stroke:#038048;stroke-width:1.0;"/><text fill="#FFFFFF" font-family="sans-serif" font-size="14" lengthAdjust="spacing" textLength="141.6816" x="27" y="180.2951">isLoggedIn: Boolean</text><line style="stroke:#E7E7E7;stroke-width:0.5;" x1="8" x2="173.7363" y1="187.5969" y2="187.5969"/><ellipse cx="18" cy="201.2453" fill="#84BE84" rx="3" ry="3" style="stroke:#038048;stroke-width:1.0;"/><text fill="#FFFFFF" font-family="sans-serif" font-size="14" lengthAdjust="spacing" textLength="70.335" x="27" y="204.592">setLogin()</text><ellipse cx="18" cy="217.5422" fill="#84BE84" rx="3" ry="3" style="stroke:#038048;stroke-width:1.0;"/><text fill="#FFFFFF" font-family="sans-serif" font-size="14" lengthAdjust="spacing" textLength="141.7363" x="27" y="220.8889">getProfileImageUri()</text><ellipse cx="18" cy="233.8391" fill="#84BE84" rx="3" ry="3" style="stroke:#038048;stroke-width:1.0;"/><text fill="#FFFFFF" font-family="sans-serif" font-size="14" lengthAdjust="spacing" textLength="105.5264" x="27" y="237.1857">getUsername()</text></g><!--class SharedPreferences--><g id="elem_SharedPreferences"><rect codeLine="16" fill="#313139" height="80.5938" id="SharedPreferences" rx="2.5" ry="2.5" style="stroke:#E7E7E7;stroke-width:0.5;" width="164.7949" x="8.47" y="304.49"/><ellipse cx="23.47" cy="320.49" fill="#2E5233" rx="11" ry="11" style="stroke:#E7E7E7;stroke-width:1.0;"/><path d="M26.4388,326.1306 Q25.8606,326.4275 25.22,326.5681 Q24.5794,326.7244 23.8763,326.7244 Q21.3763,326.7244 20.0481,325.0837 Q18.7356,323.4275 18.7356,320.3025 Q18.7356,317.1775 20.0481,315.5212 Q21.3763,313.865 23.8763,313.865 Q24.5794,313.865 25.22,314.0212 Q25.8763,314.1775 26.4388,314.4744 L26.4388,317.1931 Q25.8138,316.615 25.22,316.3494 Q24.6263,316.0681 24.0013,316.0681 Q22.6575,316.0681 21.97,317.1462 Q21.2825,318.2087 21.2825,320.3025 Q21.2825,322.3962 21.97,323.4744 Q22.6575,324.5369 24.0013,324.5369 Q24.6263,324.5369 25.22,324.2712 Q25.8138,323.99 26.4388,323.4119 L26.4388,326.1306 Z " fill="#FFFFFF"/><text fill="#FFFFFF" font-family="sans-serif" font-size="14" lengthAdjust="spacing" textLength="132.7949" x="37.47" y="325.3367">SharedPreferences</text><line style="stroke:#E7E7E7;stroke-width:0.5;" x1="9.47" x2="172.2649" y1="336.49" y2="336.49"/><ellipse cx="19.47" cy="350.1384" fill="none" rx="3" ry="3" style="stroke:#038048;stroke-width:1.0;"/><text fill="#FFFFFF" font-family="sans-serif" font-size="14" lengthAdjust="spacing" textLength="71.6133" x="28.47" y="353.4851">Username</text><ellipse cx="19.47" cy="366.4353" fill="none" rx="3" ry="3" style="stroke:#038048;stroke-width:1.0;"/><text fill="#FFFFFF" font-family="sans-serif" font-size="14" lengthAdjust="spacing" textLength="24.1035" x="28.47" y="369.782">URI</text><line style="stroke:#E7E7E7;stroke-width:0.5;" x1="9.47" x2="172.2649" y1="377.0837" y2="377.0837"/></g><!--class DB--><g id="elem_DB"><rect codeLine="21" fill="#313139" height="64.2969" id="DB" rx="2.5" ry="2.5" style="stroke:#E7E7E7;stroke-width:0.5;" width="105.4746" x="210.13" y="155.74"/><ellipse cx="249.0204" cy="171.74" fill="#2E5233" rx="11" ry="11" style="stroke:#E7E7E7;stroke-width:1.0;"/><path d="M251.9892,177.3806 Q251.4111,177.6775 250.7704,177.8181 Q250.1298,177.9744 249.4267,177.9744 Q246.9267,177.9744 245.5986,176.3337 Q244.2861,174.6775 244.2861,171.5525 Q244.2861,168.4275 245.5986,166.7712 Q246.9267,165.115 249.4267,165.115 Q250.1298,165.115 250.7704,165.2712 Q251.4267,165.4275 251.9892,165.7244 L251.9892,168.4431 Q251.3642,167.865 250.7704,167.5994 Q250.1767,167.3181 249.5517,167.3181 Q248.2079,167.3181 247.5204,168.3962 Q246.8329,169.4587 246.8329,171.5525 Q246.8329,173.6462 247.5204,174.7244 Q248.2079,175.7869 249.5517,175.7869 Q250.1767,175.7869 250.7704,175.5212 Q251.3642,175.24 251.9892,174.6619 L251.9892,177.3806 Z " fill="#FFFFFF"/><text fill="#FFFFFF" font-family="sans-serif" font-size="14" lengthAdjust="spacing" textLength="20.3848" x="268.3294" y="176.5867">DB</text><line style="stroke:#E7E7E7;stroke-width:0.5;" x1="211.13" x2="314.6046" y1="187.74" y2="187.74"/><line style="stroke:#E7E7E7;stroke-width:0.5;" x1="211.13" x2="314.6046" y1="195.74" y2="195.74"/><ellipse cx="221.13" cy="209.3884" fill="#84BE84" rx="3" ry="3" style="stroke:#038048;stroke-width:1.0;"/><text fill="#FFFFFF" font-family="sans-serif" font-size="14" lengthAdjust="spacing" textLength="79.4746" x="230.13" y="212.7351">userLogin()</text></g><!--link LoginManager to DB--><g id="link_LoginManager_DB"><path codeLine="25" d="M260.51,71.63 C261.02,96.39 261.5963,124.7213 262.1063,149.4613 " fill="none" id="LoginManager-to-DB" style="stroke:#E7E7E7;stroke-width:1.0;"/><polygon fill="#E7E7E7" points="262.23,155.46,266.0437,146.3795,262.1269,150.4611,258.0454,146.5444,262.23,155.46" style="stroke:#E7E7E7;stroke-width:1.0;"/></g><!--link LoginManager to SessionManager--><g id="link_LoginManager_SessionManager"><path codeLine="26" d="M223.61,71.63 C203.73,88.89 183.02,106.8756 159.9,126.9556 " fill="none" id="LoginManager-to-SessionManager" style="stroke:#E7E7E7;stroke-width:1.0;"/><polygon fill="#E7E7E7" points="155.37,130.89,164.7879,128.0085,159.145,127.6114,159.5421,121.9685,155.37,130.89" style="stroke:#E7E7E7;stroke-width:1.0;"/></g><!--link UserFragment to SessionManager--><g id="link_UserFragment_SessionManager"><path codeLine="27" d="M90.87,71.63 C90.87,88.89 90.87,104.81 90.87,124.89 " fill="none" id="UserFragment-to-SessionManager" style="stroke:#E7E7E7;stroke-width:1.0;"/><polygon fill="#E7E7E7" points="90.87,130.89,94.87,121.89,90.87,125.89,86.87,121.89,90.87,130.89" style="stroke:#E7E7E7;stroke-width:1.0;"/></g><!--link SessionManager to SharedPreferences--><g id="link_SessionManager_SharedPreferences"><path codeLine="28" d="M90.87,244.81 C90.87,264.57 90.87,280.36 90.87,298.45 " fill="none" id="SessionManager-to-SharedPreferences" style="stroke:#E7E7E7;stroke-width:1.0;"/><polygon fill="#E7E7E7" points="90.87,304.45,94.87,295.45,90.87,299.45,86.87,295.45,90.87,304.45" style="stroke:#E7E7E7;stroke-width:1.0;"/></g><!--SRC=[RP1D2i8m48NtEKMMIka5NBWeHIWe5AK76Dff3EH7PkAgU7UJIZLLTybxN-RDIs-0MHwzqku43XJI90e80UqjpEfcAnv2z3FMCTA1G5bqOHAbD1w6fDKG8ESkoAnzDb1gZiCK3etRoSfxW-2YolZEAAJ2q98VjS76ncSTwKLE4GuihYAkG3YqX2CIkXuvfInWEfwR3rnNoRr7DwkKTvPbkO_KhxPk8l8F-EUlho_YUz4d]--></g></svg>