<svg xmlns="http://www.w3.org/2000/svg" xmlns:xlink="http://www.w3.org/1999/xlink" contentStyleType="text/css" height="359px" preserveAspectRatio="none" style="width:509px;height:359px;background:#1B1B1B;" version="1.1" viewBox="0 0 509 359" width="509px" zoomAndPan="magnify"><defs/><g><rect fill="#1B1B1B" height="359" style="stroke:none;stroke-width:1.0;" width="509" x="0" y="0"/><!--class UserFragment--><g id="elem_UserFragment"><rect codeLine="1" fill="#313139" height="80.5938" id="UserFragment" rx="2.5" ry="2.5" style="stroke:#E7E7E7;stroke-width:0.5;" width="154.7754" x="181.42" y="7"/><ellipse cx="206.7599" cy="23" fill="#2E5233" rx="11" ry="11" style="stroke:#E7E7E7;stroke-width:1.0;"/><path d="M209.7286,28.6406 Q209.1505,28.9375 208.5099,29.0781 Q207.8693,29.2344 207.1661,29.2344 Q204.6661,29.2344 203.338,27.5938 Q202.0255,25.9375 202.0255,22.8125 Q202.0255,19.6875 203.338,18.0313 Q204.6661,16.375 207.1661,16.375 Q207.8693,16.375 208.5099,16.5313 Q209.1661,16.6875 209.7286,16.9844 L209.7286,19.7031 Q209.1036,19.125 208.5099,18.8594 Q207.9161,18.5781 207.2911,18.5781 Q205.9474,18.5781 205.2599,19.6563 Q204.5724,20.7188 204.5724,22.8125 Q204.5724,24.9063 205.2599,25.9844 Q205.9474,27.0469 207.2911,27.0469 Q207.9161,27.0469 208.5099,26.7813 Q209.1036,26.5 209.7286,25.9219 L209.7286,28.6406 Z " fill="#FFFFFF"/><text fill="#FFFFFF" font-family="sans-serif" font-size="14" lengthAdjust="spacing" textLength="99.7979" x="223.0576" y="27.8467">UserFragment</text><line style="stroke:#E7E7E7;stroke-width:0.5;" x1="182.42" x2="335.1954" y1="39" y2="39"/><line style="stroke:#E7E7E7;stroke-width:0.5;" x1="182.42" x2="335.1954" y1="47" y2="47"/><rect fill="#F24D5C" height="6" style="stroke:#C82930;stroke-width:1.0;" width="6" x="189.42" y="57.6484"/><text fill="#FFFFFF" font-family="sans-serif" font-size="14" lengthAdjust="spacing" textLength="106.1826" x="201.42" y="63.9951">loadUserData()</text><rect fill="#F24D5C" height="6" style="stroke:#C82930;stroke-width:1.0;" width="6" x="189.42" y="73.9453"/><text fill="#FFFFFF" font-family="sans-serif" font-size="14" lengthAdjust="spacing" textLength="128.7754" x="201.42" y="80.292">loadProfileImage()</text></g><!--class LoginManager--><g id="elem_LoginManager"><rect codeLine="6" fill="#313139" height="64.2969" id="LoginManager" rx="2.5" ry="2.5" style="stroke:#E7E7E7;stroke-width:0.5;" width="131.3809" x="371.12" y="15.14"/><ellipse cx="386.12" cy="31.14" fill="#2E5233" rx="11" ry="11" style="stroke:#E7E7E7;stroke-width:1.0;"/><path d="M389.0888,36.7806 Q388.5106,37.0775 387.87,37.2181 Q387.2294,37.3744 386.5263,37.3744 Q384.0263,37.3744 382.6981,35.7338 Q381.3856,34.0775 381.3856,30.9525 Q381.3856,27.8275 382.6981,26.1713 Q384.0263,24.515 386.5263,24.515 Q387.2294,24.515 387.87,24.6713 Q388.5263,24.8275 389.0888,25.1244 L389.0888,27.8431 Q388.4638,27.265 387.87,26.9994 Q387.2763,26.7181 386.6513,26.7181 Q385.3075,26.7181 384.62,27.7963 Q383.9325,28.8588 383.9325,30.9525 Q383.9325,33.0463 384.62,34.1244 Q385.3075,35.1869 386.6513,35.1869 Q387.2763,35.1869 387.87,34.9213 Q388.4638,34.64 389.0888,34.0619 L389.0888,36.7806 Z " fill="#FFFFFF"/><text fill="#FFFFFF" font-family="sans-serif" font-size="14" lengthAdjust="spacing" textLength="99.3809" x="400.12" y="35.9867">LoginManager</text><line style="stroke:#E7E7E7;stroke-width:0.5;" x1="372.12" x2="501.5009" y1="47.14" y2="47.14"/><line style="stroke:#E7E7E7;stroke-width:0.5;" x1="372.12" x2="501.5009" y1="55.14" y2="55.14"/><ellipse cx="382.12" cy="68.7884" fill="#84BE84" rx="3" ry="3" style="stroke:#038048;stroke-width:1.0;"/><text fill="#FFFFFF" font-family="sans-serif" font-size="14" lengthAdjust="spacing" textLength="55.1934" x="391.12" y="72.1351">logout()</text></g><!--class EditUserActivity--><g id="elem_EditUserActivity"><rect codeLine="10" fill="#313139" height="64.2969" id="EditUserActivity" rx="2.5" ry="2.5" style="stroke:#E7E7E7;stroke-width:0.5;" width="143.624" x="7" y="147.59"/><ellipse cx="22" cy="163.59" fill="#2E5233" rx="11" ry="11" style="stroke:#E7E7E7;stroke-width:1.0;"/><path d="M24.9688,169.2306 Q24.3906,169.5275 23.75,169.6681 Q23.1094,169.8244 22.4063,169.8244 Q19.9063,169.8244 18.5781,168.1838 Q17.2656,166.5275 17.2656,163.4025 Q17.2656,160.2775 18.5781,158.6213 Q19.9063,156.965 22.4063,156.965 Q23.1094,156.965 23.75,157.1213 Q24.4063,157.2775 24.9688,157.5744 L24.9688,160.2931 Q24.3438,159.715 23.75,159.4494 Q23.1563,159.1681 22.5313,159.1681 Q21.1875,159.1681 20.5,160.2463 Q19.8125,161.3088 19.8125,163.4025 Q19.8125,165.4963 20.5,166.5744 Q21.1875,167.6369 22.5313,167.6369 Q23.1563,167.6369 23.75,167.3713 Q24.3438,167.09 24.9688,166.5119 L24.9688,169.2306 Z " fill="#FFFFFF"/><text fill="#FFFFFF" font-family="sans-serif" font-size="14" lengthAdjust="spacing" textLength="111.624" x="36" y="168.4367">EditUserActivity</text><line style="stroke:#E7E7E7;stroke-width:0.5;" x1="8" x2="149.624" y1="179.59" y2="179.59"/><line style="stroke:#E7E7E7;stroke-width:0.5;" x1="8" x2="149.624" y1="187.59" y2="187.59"/><rect fill="#F24D5C" height="6" style="stroke:#C82930;stroke-width:1.0;" width="6" x="15" y="198.2384"/><text fill="#FFFFFF" font-family="sans-serif" font-size="14" lengthAdjust="spacing" textLength="103.1406" x="27" y="204.5851">editUserData()</text></g><!--class SessionManager--><g id="elem_SessionManager"><rect codeLine="14" fill="#313139" height="64.2969" id="SessionManager" rx="2.5" ry="2.5" style="stroke:#E7E7E7;stroke-width:0.5;" width="146.7822" x="185.42" y="147.59"/><ellipse cx="200.42" cy="163.59" fill="#2E5233" rx="11" ry="11" style="stroke:#E7E7E7;stroke-width:1.0;"/><path d="M203.3888,169.2306 Q202.8106,169.5275 202.17,169.6681 Q201.5294,169.8244 200.8263,169.8244 Q198.3263,169.8244 196.9981,168.1838 Q195.6856,166.5275 195.6856,163.4025 Q195.6856,160.2775 196.9981,158.6213 Q198.3263,156.965 200.8263,156.965 Q201.5294,156.965 202.17,157.1213 Q202.8263,157.2775 203.3888,157.5744 L203.3888,160.2931 Q202.7638,159.715 202.17,159.4494 Q201.5763,159.1681 200.9513,159.1681 Q199.6075,159.1681 198.92,160.2463 Q198.2325,161.3088 198.2325,163.4025 Q198.2325,165.4963 198.92,166.5744 Q199.6075,167.6369 200.9513,167.6369 Q201.5763,167.6369 202.17,167.3713 Q202.7638,167.09 203.3888,166.5119 L203.3888,169.2306 Z " fill="#FFFFFF"/><text fill="#FFFFFF" font-family="sans-serif" font-size="14" lengthAdjust="spacing" textLength="114.7822" x="214.42" y="168.4367">SessionManager</text><line style="stroke:#E7E7E7;stroke-width:0.5;" x1="186.42" x2="331.2022" y1="179.59" y2="179.59"/><ellipse cx="196.42" cy="193.2384" fill="none" rx="3" ry="3" style="stroke:#038048;stroke-width:1.0;"/><text fill="#FFFFFF" font-family="sans-serif" font-size="14" lengthAdjust="spacing" textLength="96.2021" x="205.42" y="196.5851">getUserName</text><line style="stroke:#E7E7E7;stroke-width:0.5;" x1="186.42" x2="331.2022" y1="203.8869" y2="203.8869"/></g><!--class DB--><g id="elem_DB"><rect codeLine="18" fill="#313139" height="80.5938" id="DB" rx="2.5" ry="2.5" style="stroke:#E7E7E7;stroke-width:0.5;" width="125.251" x="169.19" y="271.89"/><ellipse cx="217.3731" cy="287.89" fill="#2E5233" rx="11" ry="11" style="stroke:#E7E7E7;stroke-width:1.0;"/><path d="M220.3419,293.5306 Q219.7637,293.8275 219.1231,293.9681 Q218.4825,294.1244 217.7794,294.1244 Q215.2794,294.1244 213.9512,292.4838 Q212.6387,290.8275 212.6387,287.7025 Q212.6387,284.5775 213.9512,282.9213 Q215.2794,281.265 217.7794,281.265 Q218.4825,281.265 219.1231,281.4213 Q219.7794,281.5775 220.3419,281.8744 L220.3419,284.5931 Q219.7169,284.015 219.1231,283.7494 Q218.5294,283.4681 217.9044,283.4681 Q216.5606,283.4681 215.8731,284.5463 Q215.1856,285.6088 215.1856,287.7025 Q215.1856,289.7963 215.8731,290.8744 Q216.5606,291.9369 217.9044,291.9369 Q218.5294,291.9369 219.1231,291.6713 Q219.7169,291.39 220.3419,290.8119 L220.3419,293.5306 Z " fill="#FFFFFF"/><text fill="#FFFFFF" font-family="sans-serif" font-size="14" lengthAdjust="spacing" textLength="20.3848" x="237.8731" y="292.7367">DB</text><line style="stroke:#E7E7E7;stroke-width:0.5;" x1="170.19" x2="293.441" y1="303.89" y2="303.89"/><line style="stroke:#E7E7E7;stroke-width:0.5;" x1="170.19" x2="293.441" y1="311.89" y2="311.89"/><ellipse cx="180.19" cy="325.5384" fill="#84BE84" rx="3" ry="3" style="stroke:#038048;stroke-width:1.0;"/><text fill="#FFFFFF" font-family="sans-serif" font-size="14" lengthAdjust="spacing" textLength="92.1621" x="189.19" y="328.8851">updateUser()</text><ellipse cx="180.19" cy="341.8353" fill="#84BE84" rx="3" ry="3" style="stroke:#038048;stroke-width:1.0;"/><text fill="#FFFFFF" font-family="sans-serif" font-size="14" lengthAdjust="spacing" textLength="99.251" x="189.19" y="345.182">getUserData()</text></g><!--link UserFragment to LoginManager--><g id="link_UserFragment_LoginManager"><path codeLine="23" d="M336.69,47.29 C348.03,47.29 353.37,47.29 364.71,47.29 " fill="none" id="UserFragment-to-LoginManager" style="stroke:#E7E7E7;stroke-width:1.0;"/><polygon fill="#E7E7E7" points="370.71,47.29,361.71,43.29,365.71,47.29,361.71,51.29,370.71,47.29" style="stroke:#E7E7E7;stroke-width:1.0;"/></g><!--link UserFragment to EditUserActivity--><g id="link_UserFragment_EditUserActivity"><path codeLine="24" d="M204.32,87.78 C178.04,106.83 151.7975,125.838 127.1375,143.718 " fill="none" id="UserFragment-to-EditUserActivity" style="stroke:#E7E7E7;stroke-width:1.0;"/><polygon fill="#E7E7E7" points="122.28,147.24,131.9143,145.1953,126.3279,144.305,127.2183,138.7187,122.28,147.24" style="stroke:#E7E7E7;stroke-width:1.0;"/></g><!--link UserFragment to SessionManager--><g id="link_UserFragment_SessionManager"><path codeLine="25" d="M258.81,87.78 C258.81,106.83 258.81,123.36 258.81,141.24 " fill="none" id="UserFragment-to-SessionManager" style="stroke:#E7E7E7;stroke-width:1.0;"/><polygon fill="#E7E7E7" points="258.81,147.24,262.81,138.24,258.81,142.24,254.81,138.24,258.81,147.24" style="stroke:#E7E7E7;stroke-width:1.0;"/></g><!--link EditUserActivity to DB--><g id="link_EditUserActivity_DB"><path codeLine="26" d="M115.85,212.31 C136.72,230.11 158.4242,248.6173 180.6742,267.5873 " fill="none" id="EditUserActivity-to-DB" style="stroke:#E7E7E7;stroke-width:1.0;"/><polygon fill="#E7E7E7" points="185.24,271.48,180.9864,262.597,181.4352,268.2361,175.7961,268.6848,185.24,271.48" style="stroke:#E7E7E7;stroke-width:1.0;"/></g><!--link UserFragment to DB--><g id="link_UserFragment_DB"><path codeLine="27" d="M307.64,87.77 C324.33,104.29 341,124.92 349.81,147.59 C360.17,174.22 361.87,185.98 349.81,211.89 C338.06,237.13 321.1821,254.6528 299.5821,270.8328 " fill="none" id="UserFragment-to-DB" style="stroke:#E7E7E7;stroke-width:1.0;"/><polygon fill="#E7E7E7" points="294.78,274.43,304.3813,272.2357,298.7818,271.4324,299.5851,265.8328,294.78,274.43" style="stroke:#E7E7E7;stroke-width:1.0;"/></g><!--SRC=[POzH2i8m44J_SufyAj8h28Oe22g2U80bMKEWRIJP2bAykqaeRTh-phoPdLKrXC2V0Vt9WscmfPvLl7QWaoQ1OBCTXBjtBrlZkG63KVmnfdBuuenjhz16sVTi5rdZEYg9exQKwWwAxCVIDvt0GHjEZEm3Gx2kx3EOmHiqE65I9AjxQo1CRgmOoQco_8jN-zdKXHdTvSmrCH_7sJAH8IdMGId-]--></g></svg>