<svg xmlns="http://www.w3.org/2000/svg" xmlns:xlink="http://www.w3.org/1999/xlink" contentStyleType="text/css" height="202px" preserveAspectRatio="none" style="width:269px;height:202px;background:#1B1B1B;" version="1.1" viewBox="0 0 269 202" width="269px" zoomAndPan="magnify"><defs/><g><rect fill="#1B1B1B" height="202" style="stroke:none;stroke-width:1.0;" width="269" x="0" y="0"/><!--class WelcomeActivity--><g id="elem_WelcomeActivity"><rect codeLine="1" fill="#313139" height="64.2969" id="WelcomeActivity" rx="2.5" ry="2.5" style="stroke:#E7E7E7;stroke-width:0.5;" width="149.4619" x="88.11" y="7"/><ellipse cx="103.11" cy="23" fill="#2E5233" rx="11" ry="11" style="stroke:#E7E7E7;stroke-width:1.0;"/><path d="M106.0788,28.6406 Q105.5006,28.9375 104.86,29.0781 Q104.2194,29.2344 103.5163,29.2344 Q101.0163,29.2344 99.6881,27.5938 Q98.3756,25.9375 98.3756,22.8125 Q98.3756,19.6875 99.6881,18.0313 Q101.0163,16.375 103.5163,16.375 Q104.2194,16.375 104.86,16.5313 Q105.5163,16.6875 106.0788,16.9844 L106.0788,19.7031 Q105.4538,19.125 104.86,18.8594 Q104.2663,18.5781 103.6413,18.5781 Q102.2975,18.5781 101.61,19.6563 Q100.9225,20.7188 100.9225,22.8125 Q100.9225,24.9063 101.61,25.9844 Q102.2975,27.0469 103.6413,27.0469 Q104.2663,27.0469 104.86,26.7813 Q105.4538,26.5 106.0788,25.9219 L106.0788,28.6406 Z " fill="#FFFFFF"/><text fill="#FFFFFF" font-family="sans-serif" font-size="14" lengthAdjust="spacing" textLength="117.4619" x="117.11" y="27.8467">WelcomeActivity</text><line style="stroke:#E7E7E7;stroke-width:0.5;" x1="89.11" x2="236.5719" y1="39" y2="39"/><line style="stroke:#E7E7E7;stroke-width:0.5;" x1="89.11" x2="236.5719" y1="47" y2="47"/><rect fill="#F24D5C" height="6" style="stroke:#C82930;stroke-width:1.0;" width="6" x="96.11" y="57.6484"/><text fill="#FFFFFF" font-family="sans-serif" font-size="14" lengthAdjust="spacing" textLength="109.0332" x="108.11" y="63.9951">saveUserData()</text></g><!--class SessionManager--><g id="elem_SessionManager"><rect codeLine="5" fill="#313139" height="64.2969" id="SessionManager" rx="2.5" ry="2.5" style="stroke:#E7E7E7;stroke-width:0.5;" width="167.6816" x="7" y="131.29"/><ellipse cx="31.4047" cy="147.29" fill="#2E5233" rx="11" ry="11" style="stroke:#E7E7E7;stroke-width:1.0;"/><path d="M34.3735,152.9306 Q33.7954,153.2275 33.1547,153.3681 Q32.5141,153.5244 31.811,153.5244 Q29.311,153.5244 27.9829,151.8838 Q26.6704,150.2275 26.6704,147.1025 Q26.6704,143.9775 27.9829,142.3213 Q29.311,140.665 31.811,140.665 Q32.5141,140.665 33.1547,140.8213 Q33.811,140.9775 34.3735,141.2744 L34.3735,143.9931 Q33.7485,143.415 33.1547,143.1494 Q32.561,142.8681 31.936,142.8681 Q30.5922,142.8681 29.9047,143.9463 Q29.2172,145.0088 29.2172,147.1025 Q29.2172,149.1963 29.9047,150.2744 Q30.5922,151.3369 31.936,151.3369 Q32.561,151.3369 33.1547,151.0713 Q33.7485,150.79 34.3735,150.2119 L34.3735,152.9306 Z " fill="#FFFFFF"/><text fill="#FFFFFF" font-family="sans-serif" font-size="14" lengthAdjust="spacing" textLength="114.7822" x="47.4947" y="152.1367">SessionManager</text><line style="stroke:#E7E7E7;stroke-width:0.5;" x1="8" x2="173.6816" y1="163.29" y2="163.29"/><ellipse cx="18" cy="176.9384" fill="none" rx="3" ry="3" style="stroke:#038048;stroke-width:1.0;"/><text fill="#FFFFFF" font-family="sans-serif" font-size="14" lengthAdjust="spacing" textLength="141.6816" x="27" y="180.2851">isLoggedIn: Boolean</text><line style="stroke:#E7E7E7;stroke-width:0.5;" x1="8" x2="173.6816" y1="187.5869" y2="187.5869"/></g><!--class DB--><g id="elem_DB"><rect codeLine="9" fill="#313139" height="48" id="DB" rx="2.5" ry="2.5" style="stroke:#E7E7E7;stroke-width:0.5;" width="52.3848" x="209.65" y="139.44"/><ellipse cx="224.65" cy="155.44" fill="#2E5233" rx="11" ry="11" style="stroke:#E7E7E7;stroke-width:1.0;"/><path d="M227.6188,161.0806 Q227.0406,161.3775 226.4,161.5181 Q225.7594,161.6744 225.0563,161.6744 Q222.5563,161.6744 221.2281,160.0338 Q219.9156,158.3775 219.9156,155.2525 Q219.9156,152.1275 221.2281,150.4713 Q222.5563,148.815 225.0563,148.815 Q225.7594,148.815 226.4,148.9713 Q227.0563,149.1275 227.6188,149.4244 L227.6188,152.1431 Q226.9938,151.565 226.4,151.2994 Q225.8063,151.0181 225.1813,151.0181 Q223.8375,151.0181 223.15,152.0963 Q222.4625,153.1588 222.4625,155.2525 Q222.4625,157.3463 223.15,158.4244 Q223.8375,159.4869 225.1813,159.4869 Q225.8063,159.4869 226.4,159.2213 Q226.9938,158.94 227.6188,158.3619 L227.6188,161.0806 Z " fill="#FFFFFF"/><text fill="#FFFFFF" font-family="sans-serif" font-size="14" lengthAdjust="spacing" textLength="20.3848" x="238.65" y="160.2867">DB</text><line style="stroke:#E7E7E7;stroke-width:0.5;" x1="210.65" x2="261.0348" y1="171.44" y2="171.44"/><line style="stroke:#E7E7E7;stroke-width:0.5;" x1="210.65" x2="261.0348" y1="179.44" y2="179.44"/></g><!--link WelcomeActivity to SessionManager--><g id="link_WelcomeActivity_SessionManager"><path codeLine="13" d="M144.3,71.64 C133.55,89.9 123.1044,107.6397 112.3644,125.8797 " fill="none" id="WelcomeActivity-to-SessionManager" style="stroke:#E7E7E7;stroke-width:1.0;"/><polygon fill="#E7E7E7" points="109.32,131.05,117.3334,125.3241,111.857,126.7414,110.4397,121.265,109.32,131.05" style="stroke:#E7E7E7;stroke-width:1.0;"/></g><!--link WelcomeActivity to DB--><g id="link_WelcomeActivity_DB"><path codeLine="14" d="M181.64,71.64 C194.23,92.73 207.4437,114.8786 218.8737,134.0186 " fill="none" id="WelcomeActivity-to-DB" style="stroke:#E7E7E7;stroke-width:1.0;"/><polygon fill="#E7E7E7" points="221.95,139.17,220.7698,129.3921,219.3864,134.8772,213.9013,133.4938,221.95,139.17" style="stroke:#E7E7E7;stroke-width:1.0;"/></g><!--SRC=[Iyv9B2vM24_DISxFJNLCBiaiooofhERILIXEB4iDBKujSaaiITJGvAhbuae6AmrEBIxEpC_pJSnBJ4yjgkRILiWizibFJqzDySopKd3Apyz9JSn3A7TngkO2yT1iKD3LjKCp2giI5oS0]--></g></svg>