<svg xmlns="http://www.w3.org/2000/svg" xmlns:xlink="http://www.w3.org/1999/xlink" contentStyleType="text/css" height="392px" preserveAspectRatio="none" style="width:754px;height:392px;background:#FFFFFF;" version="1.1" viewBox="0 0 754 392" width="754px" zoomAndPan="magnify"><defs/><g><!--class DB--><g id="elem_DB"><rect codeLine="1" fill="#F1F1F1" height="162.0781" id="DB" rx="2.5" ry="2.5" style="stroke:#181818;stroke-width:0.5;" width="214.8701" x="273" y="7"/><ellipse cx="365.9927" cy="23" fill="#ADD1B2" rx="11" ry="11" style="stroke:#181818;stroke-width:1.0;"/><path d="M368.9614,28.6406 Q368.3833,28.9375 367.7427,29.0781 Q367.1021,29.2344 366.3989,29.2344 Q363.8989,29.2344 362.5708,27.5938 Q361.2583,25.9375 361.2583,22.8125 Q361.2583,19.6875 362.5708,18.0313 Q363.8989,16.375 366.3989,16.375 Q367.1021,16.375 367.7427,16.5313 Q368.3989,16.6875 368.9614,16.9844 L368.9614,19.7031 Q368.3364,19.125 367.7427,18.8594 Q367.1489,18.5781 366.5239,18.5781 Q365.1802,18.5781 364.4927,19.6563 Q363.8052,20.7188 363.8052,22.8125 Q363.8052,24.9063 364.4927,25.9844 Q365.1802,27.0469 366.5239,27.0469 Q367.1489,27.0469 367.7427,26.7813 Q368.3364,26.5 368.9614,25.9219 L368.9614,28.6406 Z " fill="#000000"/><text fill="#000000" font-family="sans-serif" font-size="14" lengthAdjust="spacing" textLength="20.3848" x="386.4927" y="27.8467">DB</text><line style="stroke:#181818;stroke-width:0.5;" x1="274" x2="486.8701" y1="39" y2="39"/><rect fill="none" height="6" style="stroke:#C82930;stroke-width:1.0;" width="6" x="281" y="49.6484"/><text fill="#000000" font-family="sans-serif" font-size="14" lengthAdjust="spacing" textLength="123.375" x="293" y="55.9951">DATABASE_NAME</text><rect fill="none" height="6" style="stroke:#C82930;stroke-width:1.0;" width="6" x="281" y="65.9453"/><text fill="#000000" font-family="sans-serif" font-size="14" lengthAdjust="spacing" textLength="145.0586" x="293" y="72.292">DATABASE_VERSION</text><line style="stroke:#181818;stroke-width:0.5;" x1="274" x2="486.8701" y1="79.5938" y2="79.5938"/><ellipse cx="284" cy="93.2422" fill="#84BE84" rx="3" ry="3" style="stroke:#038048;stroke-width:1.0;"/><text fill="#000000" font-family="sans-serif" font-size="14" lengthAdjust="spacing" textLength="101.4863" x="293" y="96.5889">createTables()</text><ellipse cx="284" cy="109.5391" fill="#84BE84" rx="3" ry="3" style="stroke:#038048;stroke-width:1.0;"/><text fill="#000000" font-family="sans-serif" font-size="14" lengthAdjust="spacing" textLength="82.749" x="293" y="112.8857">insertUser()</text><ellipse cx="284" cy="125.8359" fill="#84BE84" rx="3" ry="3" style="stroke:#038048;stroke-width:1.0;"/><text fill="#000000" font-family="sans-serif" font-size="14" lengthAdjust="spacing" textLength="178.6777" x="293" y="129.1826">getAllTrainingsByUserId()</text><ellipse cx="284" cy="142.1328" fill="#84BE84" rx="3" ry="3" style="stroke:#038048;stroke-width:1.0;"/><text fill="#000000" font-family="sans-serif" font-size="14" lengthAdjust="spacing" textLength="188.8701" x="293" y="145.4795">getLocationsByTrainingId()</text><ellipse cx="284" cy="158.4297" fill="#84BE84" rx="3" ry="3" style="stroke:#038048;stroke-width:1.0;"/><text fill="#000000" font-family="sans-serif" font-size="14" lengthAdjust="spacing" textLength="171.0898" x="293" y="161.7764">insertCalendarTraining()</text></g><!--class SQLite--><g id="elem_SQLite"><rect codeLine="11" fill="#F1F1F1" height="48" id="SQLite" rx="2.5" ry="2.5" style="stroke:#181818;stroke-width:0.5;" width="77.6982" x="341.5" y="229"/><ellipse cx="356.5" cy="245" fill="#ADD1B2" rx="11" ry="11" style="stroke:#181818;stroke-width:1.0;"/><path d="M359.4688,250.6406 Q358.8906,250.9375 358.25,251.0781 Q357.6094,251.2344 356.9063,251.2344 Q354.4063,251.2344 353.0781,249.5938 Q351.7656,247.9375 351.7656,244.8125 Q351.7656,241.6875 353.0781,240.0313 Q354.4063,238.375 356.9063,238.375 Q357.6094,238.375 358.25,238.5313 Q358.9063,238.6875 359.4688,238.9844 L359.4688,241.7031 Q358.8438,241.125 358.25,240.8594 Q357.6563,240.5781 357.0313,240.5781 Q355.6875,240.5781 355,241.6563 Q354.3125,242.7188 354.3125,244.8125 Q354.3125,246.9063 355,247.9844 Q355.6875,249.0469 357.0313,249.0469 Q357.6563,249.0469 358.25,248.7813 Q358.8438,248.5 359.4688,247.9219 L359.4688,250.6406 Z " fill="#000000"/><text fill="#000000" font-family="sans-serif" font-size="14" lengthAdjust="spacing" textLength="45.6982" x="370.5" y="249.8467">SQLite</text><line style="stroke:#181818;stroke-width:0.5;" x1="342.5" x2="418.1982" y1="261" y2="261"/><line style="stroke:#181818;stroke-width:0.5;" x1="342.5" x2="418.1982" y1="269" y2="269"/></g><!--class TrainingSessionsTable--><g id="elem_TrainingSessionsTable"><rect codeLine="14" fill="#F1F1F1" height="48" id="TrainingSessionsTable" rx="2.5" ry="2.5" style="stroke:#181818;stroke-width:0.5;" width="188.5293" x="7" y="337"/><ellipse cx="22" cy="353" fill="#ADD1B2" rx="11" ry="11" style="stroke:#181818;stroke-width:1.0;"/><path d="M24.9688,358.6406 Q24.3906,358.9375 23.75,359.0781 Q23.1094,359.2344 22.4063,359.2344 Q19.9063,359.2344 18.5781,357.5938 Q17.2656,355.9375 17.2656,352.8125 Q17.2656,349.6875 18.5781,348.0313 Q19.9063,346.375 22.4063,346.375 Q23.1094,346.375 23.75,346.5313 Q24.4063,346.6875 24.9688,346.9844 L24.9688,349.7031 Q24.3438,349.125 23.75,348.8594 Q23.1563,348.5781 22.5313,348.5781 Q21.1875,348.5781 20.5,349.6563 Q19.8125,350.7188 19.8125,352.8125 Q19.8125,354.9063 20.5,355.9844 Q21.1875,357.0469 22.5313,357.0469 Q23.1563,357.0469 23.75,356.7813 Q24.3438,356.5 24.9688,355.9219 L24.9688,358.6406 Z " fill="#000000"/><text fill="#000000" font-family="sans-serif" font-size="14" lengthAdjust="spacing" textLength="156.5293" x="36" y="357.8467">TrainingSessionsTable</text><line style="stroke:#181818;stroke-width:0.5;" x1="8" x2="194.5293" y1="369" y2="369"/><line style="stroke:#181818;stroke-width:0.5;" x1="8" x2="194.5293" y1="377" y2="377"/></g><!--class UsersTable--><g id="elem_UsersTable"><rect codeLine="17" fill="#F1F1F1" height="48" id="UsersTable" rx="2.5" ry="2.5" style="stroke:#181818;stroke-width:0.5;" width="109.7246" x="231.5" y="337"/><ellipse cx="246.5" cy="353" fill="#ADD1B2" rx="11" ry="11" style="stroke:#181818;stroke-width:1.0;"/><path d="M249.4688,358.6406 Q248.8906,358.9375 248.25,359.0781 Q247.6094,359.2344 246.9063,359.2344 Q244.4063,359.2344 243.0781,357.5938 Q241.7656,355.9375 241.7656,352.8125 Q241.7656,349.6875 243.0781,348.0313 Q244.4063,346.375 246.9063,346.375 Q247.6094,346.375 248.25,346.5313 Q248.9063,346.6875 249.4688,346.9844 L249.4688,349.7031 Q248.8438,349.125 248.25,348.8594 Q247.6563,348.5781 247.0313,348.5781 Q245.6875,348.5781 245,349.6563 Q244.3125,350.7188 244.3125,352.8125 Q244.3125,354.9063 245,355.9844 Q245.6875,357.0469 247.0313,357.0469 Q247.6563,357.0469 248.25,356.7813 Q248.8438,356.5 249.4688,355.9219 L249.4688,358.6406 Z " fill="#000000"/><text fill="#000000" font-family="sans-serif" font-size="14" lengthAdjust="spacing" textLength="77.7246" x="260.5" y="357.8467">UsersTable</text><line style="stroke:#181818;stroke-width:0.5;" x1="232.5" x2="340.2246" y1="369" y2="369"/><line style="stroke:#181818;stroke-width:0.5;" x1="232.5" x2="340.2246" y1="377" y2="377"/></g><!--class CalendarTrainingsTable--><g id="elem_CalendarTrainingsTable"><rect codeLine="20" fill="#F1F1F1" height="48" id="CalendarTrainingsTable" rx="2.5" ry="2.5" style="stroke:#181818;stroke-width:0.5;" width="198.0654" x="376.5" y="337"/><ellipse cx="391.5" cy="353" fill="#ADD1B2" rx="11" ry="11" style="stroke:#181818;stroke-width:1.0;"/><path d="M394.4688,358.6406 Q393.8906,358.9375 393.25,359.0781 Q392.6094,359.2344 391.9063,359.2344 Q389.4063,359.2344 388.0781,357.5938 Q386.7656,355.9375 386.7656,352.8125 Q386.7656,349.6875 388.0781,348.0313 Q389.4063,346.375 391.9063,346.375 Q392.6094,346.375 393.25,346.5313 Q393.9063,346.6875 394.4688,346.9844 L394.4688,349.7031 Q393.8438,349.125 393.25,348.8594 Q392.6563,348.5781 392.0313,348.5781 Q390.6875,348.5781 390,349.6563 Q389.3125,350.7188 389.3125,352.8125 Q389.3125,354.9063 390,355.9844 Q390.6875,357.0469 392.0313,357.0469 Q392.6563,357.0469 393.25,356.7813 Q393.8438,356.5 394.4688,355.9219 L394.4688,358.6406 Z " fill="#000000"/><text fill="#000000" font-family="sans-serif" font-size="14" lengthAdjust="spacing" textLength="166.0654" x="405.5" y="357.8467">CalendarTrainingsTable</text><line style="stroke:#181818;stroke-width:0.5;" x1="377.5" x2="573.5654" y1="369" y2="369"/><line style="stroke:#181818;stroke-width:0.5;" x1="377.5" x2="573.5654" y1="377" y2="377"/></g><!--class LocationsTable--><g id="elem_LocationsTable"><rect codeLine="23" fill="#F1F1F1" height="48" id="LocationsTable" rx="2.5" ry="2.5" style="stroke:#181818;stroke-width:0.5;" width="137.2734" x="610" y="337"/><ellipse cx="625" cy="353" fill="#ADD1B2" rx="11" ry="11" style="stroke:#181818;stroke-width:1.0;"/><path d="M627.9688,358.6406 Q627.3906,358.9375 626.75,359.0781 Q626.1094,359.2344 625.4063,359.2344 Q622.9063,359.2344 621.5781,357.5938 Q620.2656,355.9375 620.2656,352.8125 Q620.2656,349.6875 621.5781,348.0313 Q622.9063,346.375 625.4063,346.375 Q626.1094,346.375 626.75,346.5313 Q627.4063,346.6875 627.9688,346.9844 L627.9688,349.7031 Q627.3438,349.125 626.75,348.8594 Q626.1563,348.5781 625.5313,348.5781 Q624.1875,348.5781 623.5,349.6563 Q622.8125,350.7188 622.8125,352.8125 Q622.8125,354.9063 623.5,355.9844 Q624.1875,357.0469 625.5313,357.0469 Q626.1563,357.0469 626.75,356.7813 Q627.3438,356.5 627.9688,355.9219 L627.9688,358.6406 Z " fill="#000000"/><text fill="#000000" font-family="sans-serif" font-size="14" lengthAdjust="spacing" textLength="105.2734" x="639" y="357.8467">LocationsTable</text><line style="stroke:#181818;stroke-width:0.5;" x1="611" x2="746.2734" y1="369" y2="369"/><line style="stroke:#181818;stroke-width:0.5;" x1="611" x2="746.2734" y1="377" y2="377"/></g><!--link DB to SQLite--><g id="link_DB_SQLite"><path codeLine="26" d="M380.5,169.07 C380.5,190.97 380.5,207 380.5,222.85 " fill="none" id="DB-to-SQLite" style="stroke:#181818;stroke-width:1.0;"/><polygon fill="#181818" points="380.5,228.85,384.5,219.85,380.5,223.85,376.5,219.85,380.5,228.85" style="stroke:#181818;stroke-width:1.0;"/></g><!--link SQLite to UsersTable--><g id="link_SQLite_UsersTable"><path codeLine="27" d="M360.1,277 C344.44,294.66 326.8907,314.4507 311.1607,332.1907 " fill="none" id="SQLite-to-UsersTable" style="stroke:#181818;stroke-width:1.0;"/><polygon fill="#181818" points="307.18,336.68,316.1439,332.5998,310.4972,332.9389,310.1581,327.2922,307.18,336.68" style="stroke:#181818;stroke-width:1.0;"/></g><!--link SQLite to TrainingSessionsTable--><g id="link_SQLite_TrainingSessionsTable"><path codeLine="28" d="M341.41,268.85 C294.85,286.54 222.1389,314.1693 167.6989,334.8493 " fill="none" id="SQLite-to-TrainingSessionsTable" style="stroke:#181818;stroke-width:1.0;"/><polygon fill="#181818" points="162.09,336.98,171.9239,337.5233,166.7641,335.2045,169.083,330.0447,162.09,336.98" style="stroke:#181818;stroke-width:1.0;"/></g><!--link SQLite to CalendarTrainingsTable--><g id="link_SQLite_CalendarTrainingsTable"><path codeLine="29" d="M401.11,277 C416.94,294.66 434.6954,314.472 450.5954,332.212 " fill="none" id="SQLite-to-CalendarTrainingsTable" style="stroke:#181818;stroke-width:1.0;"/><polygon fill="#181818" points="454.6,336.68,451.5718,327.3082,451.2628,332.9566,445.6144,332.6477,454.6,336.68" style="stroke:#181818;stroke-width:1.0;"/></g><!--link SQLite to LocationsTable--><g id="link_SQLite_LocationsTable"><path codeLine="30" d="M419.76,267.97 C469.15,285.53 548.987,313.9291 608.107,334.9591 " fill="none" id="SQLite-to-LocationsTable" style="stroke:#181818;stroke-width:1.0;"/><polygon fill="#181818" points="613.76,336.97,606.6211,330.185,609.0492,335.2943,603.9399,337.7224,613.76,336.97" style="stroke:#181818;stroke-width:1.0;"/></g><!--SRC=[RP1D3i8W44Rtd8AbnlGA9jHsqQJMADMjGJffI0XDW8qntbtedsCj2nPllc7U8BLmZcOfVH4QJa8pLhEKyVnUiME-PBVymejJrUCTbHQ4XreyDBZDTeJAEB3-6guPjU2PrhKLoYZJklGPgqM3wsKdXLUT2SKfXmB3cmUXmJJ2Je5GVXCY-mNukLGUmX8pcL8Sd8iFzveu42N-wNB8a421sHIrXkzBalqeGKQNIBup45qrmrth3YZnw_01]--></g></svg>