<svg xmlns="http://www.w3.org/2000/svg" xmlns:xlink="http://www.w3.org/1999/xlink" contentStyleType="text/css" height="459px" preserveAspectRatio="none" style="width:212px;height:459px;background:#FFFFFF;" version="1.1" viewBox="0 0 212 459" width="212px" zoomAndPan="magnify"><defs/><g><!--class HomeFragment--><g id="elem_HomeFragment"><rect codeLine="1" fill="#F1F1F1" height="80.5938" id="HomeFragment" rx="2.5" ry="2.5" style="stroke:#181818;stroke-width:0.5;" width="169.8896" x="21.5" y="7"/><ellipse cx="49.3962" cy="23" fill="#ADD1B2" rx="11" ry="11" style="stroke:#181818;stroke-width:1.0;"/><path d="M52.3649,28.6406 Q51.7868,28.9375 51.1462,29.0781 Q50.5056,29.2344 49.8024,29.2344 Q47.3024,29.2344 45.9743,27.5938 Q44.6618,25.9375 44.6618,22.8125 Q44.6618,19.6875 45.9743,18.0313 Q47.3024,16.375 49.8024,16.375 Q50.5056,16.375 51.1462,16.5313 Q51.8024,16.6875 52.3649,16.9844 L52.3649,19.7031 Q51.7399,19.125 51.1462,18.8594 Q50.5524,18.5781 49.9274,18.5781 Q48.5837,18.5781 47.8962,19.6563 Q47.2087,20.7188 47.2087,22.8125 Q47.2087,24.9063 47.8962,25.9844 Q48.5837,27.0469 49.9274,27.0469 Q50.5524,27.0469 51.1462,26.7813 Q51.7399,26.5 52.3649,25.9219 L52.3649,28.6406 Z " fill="#000000"/><text fill="#000000" font-family="sans-serif" font-size="14" lengthAdjust="spacing" textLength="109.2314" x="66.262" y="27.8467">HomeFragment</text><line style="stroke:#181818;stroke-width:0.5;" x1="22.5" x2="190.3896" y1="39" y2="39"/><line style="stroke:#181818;stroke-width:0.5;" x1="22.5" x2="190.3896" y1="47" y2="47"/><ellipse cx="32.5" cy="60.6484" fill="#84BE84" rx="3" ry="3" style="stroke:#038048;stroke-width:1.0;"/><text fill="#000000" font-family="sans-serif" font-size="14" lengthAdjust="spacing" textLength="143.8896" x="41.5" y="63.9951">setupRecyclerView()</text><ellipse cx="32.5" cy="76.9453" fill="#84BE84" rx="3" ry="3" style="stroke:#038048;stroke-width:1.0;"/><text fill="#000000" font-family="sans-serif" font-size="14" lengthAdjust="spacing" textLength="74.6279" x="41.5" y="80.292">updateUI()</text></g><!--class TrainingSessionAdapter--><g id="elem_TrainingSessionAdapter"><rect codeLine="6" fill="#F1F1F1" height="80.5938" id="TrainingSessionAdapter" rx="2.5" ry="2.5" style="stroke:#181818;stroke-width:0.5;" width="198.5029" x="7" y="165"/><ellipse cx="22" cy="181" fill="#ADD1B2" rx="11" ry="11" style="stroke:#181818;stroke-width:1.0;"/><path d="M24.9688,186.6406 Q24.3906,186.9375 23.75,187.0781 Q23.1094,187.2344 22.4063,187.2344 Q19.9063,187.2344 18.5781,185.5938 Q17.2656,183.9375 17.2656,180.8125 Q17.2656,177.6875 18.5781,176.0313 Q19.9063,174.375 22.4063,174.375 Q23.1094,174.375 23.75,174.5313 Q24.4063,174.6875 24.9688,174.9844 L24.9688,177.7031 Q24.3438,177.125 23.75,176.8594 Q23.1563,176.5781 22.5313,176.5781 Q21.1875,176.5781 20.5,177.6563 Q19.8125,178.7188 19.8125,180.8125 Q19.8125,182.9063 20.5,183.9844 Q21.1875,185.0469 22.5313,185.0469 Q23.1563,185.0469 23.75,184.7813 Q24.3438,184.5 24.9688,183.9219 L24.9688,186.6406 Z " fill="#000000"/><text fill="#000000" font-family="sans-serif" font-size="14" lengthAdjust="spacing" textLength="166.5029" x="36" y="185.8467">TrainingSessionAdapter</text><line style="stroke:#181818;stroke-width:0.5;" x1="8" x2="204.5029" y1="197" y2="197"/><line style="stroke:#181818;stroke-width:0.5;" x1="8" x2="204.5029" y1="205" y2="205"/><ellipse cx="18" cy="218.6484" fill="#84BE84" rx="3" ry="3" style="stroke:#038048;stroke-width:1.0;"/><text fill="#000000" font-family="sans-serif" font-size="14" lengthAdjust="spacing" textLength="107.3584" x="27" y="221.9951">getItemCount()</text><ellipse cx="18" cy="234.9453" fill="#84BE84" rx="3" ry="3" style="stroke:#038048;stroke-width:1.0;"/><text fill="#000000" font-family="sans-serif" font-size="14" lengthAdjust="spacing" textLength="150.3291" x="27" y="238.292">setTrainingSessions()</text></g><!--class TrainingSession--><g id="elem_TrainingSession"><rect codeLine="12" fill="#F1F1F1" height="129.4844" id="TrainingSession" rx="2.5" ry="2.5" style="stroke:#181818;stroke-width:0.5;" width="142.7148" x="35" y="323"/><ellipse cx="50" cy="339" fill="#ADD1B2" rx="11" ry="11" style="stroke:#181818;stroke-width:1.0;"/><path d="M52.9688,344.6406 Q52.3906,344.9375 51.75,345.0781 Q51.1094,345.2344 50.4063,345.2344 Q47.9063,345.2344 46.5781,343.5938 Q45.2656,341.9375 45.2656,338.8125 Q45.2656,335.6875 46.5781,334.0313 Q47.9063,332.375 50.4063,332.375 Q51.1094,332.375 51.75,332.5313 Q52.4063,332.6875 52.9688,332.9844 L52.9688,335.7031 Q52.3438,335.125 51.75,334.8594 Q51.1563,334.5781 50.5313,334.5781 Q49.1875,334.5781 48.5,335.6563 Q47.8125,336.7188 47.8125,338.8125 Q47.8125,340.9063 48.5,341.9844 Q49.1875,343.0469 50.5313,343.0469 Q51.1563,343.0469 51.75,342.7813 Q52.3438,342.5 52.9688,341.9219 L52.9688,344.6406 Z " fill="#000000"/><text fill="#000000" font-family="sans-serif" font-size="14" lengthAdjust="spacing" textLength="110.7148" x="64" y="343.8467">TrainingSession</text><line style="stroke:#181818;stroke-width:0.5;" x1="36" x2="176.7148" y1="355" y2="355"/><ellipse cx="46" cy="368.6484" fill="none" rx="3" ry="3" style="stroke:#038048;stroke-width:1.0;"/><text fill="#000000" font-family="sans-serif" font-size="14" lengthAdjust="spacing" textLength="64.8389" x="55" y="371.9951">sessionId</text><ellipse cx="46" cy="384.9453" fill="none" rx="3" ry="3" style="stroke:#038048;stroke-width:1.0;"/><text fill="#000000" font-family="sans-serif" font-size="14" lengthAdjust="spacing" textLength="85.2852" x="55" y="388.292">sessionDate</text><ellipse cx="46" cy="401.2422" fill="none" rx="3" ry="3" style="stroke:#038048;stroke-width:1.0;"/><text fill="#000000" font-family="sans-serif" font-size="14" lengthAdjust="spacing" textLength="58.9121" x="55" y="404.5889">duration</text><ellipse cx="46" cy="417.5391" fill="none" rx="3" ry="3" style="stroke:#038048;stroke-width:1.0;"/><text fill="#000000" font-family="sans-serif" font-size="14" lengthAdjust="spacing" textLength="88.5732" x="55" y="420.8857">trainingType</text><ellipse cx="46" cy="433.8359" fill="none" rx="3" ry="3" style="stroke:#038048;stroke-width:1.0;"/><text fill="#000000" font-family="sans-serif" font-size="14" lengthAdjust="spacing" textLength="94.2402" x="55" y="437.1826">burntCalories</text><line style="stroke:#181818;stroke-width:0.5;" x1="36" x2="176.7148" y1="444.4844" y2="444.4844"/></g><!--link HomeFragment to TrainingSessionAdapter--><g id="link_HomeFragment_TrainingSessionAdapter"><path codeLine="21" d="M82.62,88.08 C78.03,97.56 73.9,107.88 71.5,118 C67.76,133.76 69.6917,144.997 76.5917,159.427 " fill="none" id="HomeFragment-to-TrainingSessionAdapter" style="stroke:#181818;stroke-width:1.0;"/><polygon fill="#181818" points="79.18,164.84,78.9062,154.9949,77.0231,160.3292,71.6888,158.4461,79.18,164.84" style="stroke:#181818;stroke-width:1.0;"/><text fill="#000000" font-family="sans-serif" font-size="13" lengthAdjust="spacing" textLength="22.9785" x="72.5" y="131.0669">usa</text></g><!--link TrainingSessionAdapter to HomeFragment--><g id="link_TrainingSessionAdapter_HomeFragment"><path codeLine="23" d="M106.5,164.8 C106.5,141.35 106.5,117.74 106.5,94.27 " fill="none" id="TrainingSessionAdapter-to-HomeFragment" style="stroke:#181818;stroke-width:1.0;"/><polygon fill="#181818" points="106.5,88.27,102.5,97.27,106.5,93.27,110.5,97.27,106.5,88.27" style="stroke:#181818;stroke-width:1.0;"/><text fill="#000000" font-family="sans-serif" font-size="13" lengthAdjust="spacing" textLength="57.5859" x="107.5" y="131.0669">aggiorna</text></g><!--link TrainingSessionAdapter to TrainingSession--><g id="link_TrainingSessionAdapter_TrainingSession"><path codeLine="22" d="M106.5,246 C106.5,268.46 106.5,291.12 106.5,316.69 " fill="none" id="TrainingSessionAdapter-to-TrainingSession" style="stroke:#181818;stroke-width:1.0;"/><polygon fill="#181818" points="106.5,322.69,110.5,313.69,106.5,317.69,102.5,313.69,106.5,322.69" style="stroke:#181818;stroke-width:1.0;"/><text fill="#000000" font-family="sans-serif" font-size="13" lengthAdjust="spacing" textLength="45.7983" x="107.5" y="289.0669">mostra</text></g><!--SRC=[VP313e8m38RlUueT9OONu61YC4QkYjuhDCiIsCZQnH3ZkxiW811nbwLV-_z_jw828dcoDHuTg1eDowUG_TaIic_EMBH5XUwcyR69latVbC1upNhs4jrLT8Qv0ssqKHSaqjRiIsWOtTHQ8MUCTMgzuQbhY5o8QHF98K6i18pEGT-1h5o0GzXrGALtm84DDVTcUTkCCtVl3ATGMQUHn2Tyzarnl5jxPY8zWHGhtH_2eAWjXJN-QMRfYGIbj7K6tW00]--></g></svg>